<mxfile host="65bd71144e">
    <diagram id="_k8TURm8gIdta8wLQPci" name="Page-1">
        <mxGraphModel dx="2487" dy="2233" grid="1" gridSize="10" guides="1" tooltips="1" connect="1" arrows="1" fold="1" page="0" pageScale="1" pageWidth="583" pageHeight="413" math="0" shadow="0">
            <root>
                <mxCell id="0"/>
                <mxCell id="1" parent="0"/>
                <mxCell id="142" value="POWER SYSTEM TRANSMISSION CALCULATOR" style="swimlane;childLayout=stackLayout;resizeParent=1;resizeParentMax=0;horizontal=1;startSize=100;horizontalStack=0;html=1;fontSize=50;" parent="1" vertex="1">
                    <mxGeometry x="40" y="-280" width="2098" height="4270" as="geometry"/>
                </mxCell>
                <mxCell id="147" value="MÓDULO DE CORREAS PLANAS [FORBO]" style="swimlane;startSize=60;horizontal=0;html=1;fontSize=30;" parent="142" vertex="1">
                    <mxGeometry y="100" width="2098" height="650" as="geometry"/>
                </mxCell>
                <mxCell id="281" value="" style="group" parent="147" vertex="1" connectable="0">
                    <mxGeometry x="87" y="131.25" width="1915" height="387.5" as="geometry"/>
                </mxCell>
                <mxCell id="151" value="Parametros iniciales" style="rounded=1;whiteSpace=wrap;html=1;comic=0;" parent="281" vertex="1">
                    <mxGeometry x="57" width="140" height="75" as="geometry"/>
                </mxCell>
                <mxCell id="152" value="&lt;div style=&quot;&quot;&gt;&lt;span style=&quot;background-color: initial;&quot;&gt;- Potencia del motor&amp;nbsp; &amp;nbsp; &amp;nbsp; &amp;nbsp; &amp;nbsp; &amp;nbsp; &amp;nbsp; &amp;nbsp; &amp;nbsp;&amp;nbsp;&lt;/span&gt;&lt;/div&gt;&lt;div style=&quot;&quot;&gt;&lt;span style=&quot;background-color: initial;&quot;&gt;- RPM del motor&amp;nbsp; &amp;nbsp; &amp;nbsp; &amp;nbsp; &amp;nbsp; &amp;nbsp; &amp;nbsp; &amp;nbsp; &amp;nbsp; &amp;nbsp; &amp;nbsp; &amp;nbsp; &amp;nbsp;&amp;nbsp;&lt;/span&gt;&lt;/div&gt;&lt;div style=&quot;&quot;&gt;&lt;span style=&quot;background-color: initial;&quot;&gt;- Diámetro de la polea menor&amp;nbsp; &amp;nbsp; &amp;nbsp; &amp;nbsp;&lt;/span&gt;&lt;/div&gt;&lt;div style=&quot;&quot;&gt;&lt;span style=&quot;background-color: initial;&quot;&gt;- Diámetro de la polea mayor&amp;nbsp; &amp;nbsp; &amp;nbsp; &amp;nbsp; &amp;nbsp;&lt;/span&gt;&lt;/div&gt;&lt;div style=&quot;&quot;&gt;&lt;span style=&quot;background-color: initial;&quot;&gt;- Distancia entre poleas&amp;nbsp; &amp;nbsp; &amp;nbsp; &amp;nbsp; &amp;nbsp; &amp;nbsp; &amp;nbsp; &amp;nbsp; &amp;nbsp; &amp;nbsp;&lt;/span&gt;&lt;/div&gt;&lt;div style=&quot;&quot;&gt;- Gama y recubrimiento de la correa&amp;nbsp;&lt;/div&gt;&lt;div style=&quot;&quot;&gt;- Tipo y sentido de giro del motor&amp;nbsp; &amp;nbsp; &amp;nbsp; &amp;nbsp;&amp;nbsp;&lt;/div&gt;" style="shape=parallelogram;perimeter=parallelogramPerimeter;whiteSpace=wrap;html=1;fixedSize=1;align=center;" parent="281" vertex="1">
                    <mxGeometry y="127.5" width="254" height="140" as="geometry"/>
                </mxCell>
                <mxCell id="176" style="edgeStyle=none;html=1;entryX=0.5;entryY=0;entryDx=0;entryDy=0;" parent="281" source="151" target="152" edge="1">
                    <mxGeometry relative="1" as="geometry"/>
                </mxCell>
                <mxCell id="153" value="Ángulo de contacto entre las poleas y la correa plana" style="rounded=0;whiteSpace=wrap;html=1;" parent="281" vertex="1">
                    <mxGeometry x="373" y="87.5" width="320" height="60" as="geometry"/>
                </mxCell>
                <mxCell id="179" style="edgeStyle=orthogonalEdgeStyle;html=1;exitX=1;exitY=0.5;exitDx=0;exitDy=0;entryX=0;entryY=0.5;entryDx=0;entryDy=0;" parent="281" source="152" target="153" edge="1">
                    <mxGeometry relative="1" as="geometry"/>
                </mxCell>
                <mxCell id="154" value="Velocidad de la correa de transmisión" style="rounded=0;whiteSpace=wrap;html=1;" parent="281" vertex="1">
                    <mxGeometry x="373" y="167.5" width="320" height="60" as="geometry"/>
                </mxCell>
                <mxCell id="177" style="edgeStyle=none;html=1;exitX=1;exitY=0.5;exitDx=0;exitDy=0;entryX=0;entryY=0.5;entryDx=0;entryDy=0;" parent="281" source="152" target="154" edge="1">
                    <mxGeometry relative="1" as="geometry"/>
                </mxCell>
                <mxCell id="155" value="Fuerza tangencial de transmisión" style="rounded=0;whiteSpace=wrap;html=1;" parent="281" vertex="1">
                    <mxGeometry x="373" y="247.5" width="320" height="60" as="geometry"/>
                </mxCell>
                <mxCell id="180" style="edgeStyle=orthogonalEdgeStyle;html=1;exitX=1;exitY=0.5;exitDx=0;exitDy=0;entryX=0;entryY=0.5;entryDx=0;entryDy=0;" parent="281" source="152" target="155" edge="1">
                    <mxGeometry relative="1" as="geometry"/>
                </mxCell>
                <mxCell id="188" style="edgeStyle=orthogonalEdgeStyle;html=1;exitX=1;exitY=0.5;exitDx=0;exitDy=0;entryX=1;entryY=0.5;entryDx=0;entryDy=0;" parent="281" source="154" target="155" edge="1">
                    <mxGeometry relative="1" as="geometry">
                        <Array as="points">
                            <mxPoint x="753" y="197.5"/>
                            <mxPoint x="753" y="277.5"/>
                        </Array>
                    </mxGeometry>
                </mxCell>
                <mxCell id="157" value="Coeficientes de transmisión&lt;br&gt;segun la gama de la &lt;br&gt;correa plana" style="shape=parallelogram;perimeter=parallelogramPerimeter;whiteSpace=wrap;html=1;fixedSize=1;" parent="281" vertex="1">
                    <mxGeometry x="813" y="147.5" width="240" height="100" as="geometry"/>
                </mxCell>
                <mxCell id="187" style="edgeStyle=orthogonalEdgeStyle;html=1;exitX=1;exitY=0.5;exitDx=0;exitDy=0;entryX=0;entryY=0.5;entryDx=0;entryDy=0;" parent="281" source="153" target="157" edge="1">
                    <mxGeometry relative="1" as="geometry"/>
                </mxCell>
                <mxCell id="158" value="Longitud de la correa plana" style="rounded=0;whiteSpace=wrap;html=1;" parent="281" vertex="1">
                    <mxGeometry x="1163" y="7.5" width="320" height="60" as="geometry"/>
                </mxCell>
                <mxCell id="182" style="edgeStyle=orthogonalEdgeStyle;html=1;exitX=1;exitY=0.5;exitDx=0;exitDy=0;entryX=0;entryY=0.5;entryDx=0;entryDy=0;" parent="281" source="157" target="158" edge="1">
                    <mxGeometry relative="1" as="geometry"/>
                </mxCell>
                <mxCell id="159" value="Ancho de la correa plana" style="rounded=0;whiteSpace=wrap;html=1;" parent="281" vertex="1">
                    <mxGeometry x="1163" y="87.5" width="320" height="60" as="geometry"/>
                </mxCell>
                <mxCell id="184" style="edgeStyle=orthogonalEdgeStyle;html=1;exitX=1;exitY=0.5;exitDx=0;exitDy=0;entryX=0;entryY=0.5;entryDx=0;entryDy=0;" parent="281" source="157" target="159" edge="1">
                    <mxGeometry relative="1" as="geometry"/>
                </mxCell>
                <mxCell id="169" value="Frecuencia de exitación" style="rounded=0;whiteSpace=wrap;html=1;" parent="281" vertex="1">
                    <mxGeometry x="1163" y="167.5" width="320" height="60" as="geometry"/>
                </mxCell>
                <mxCell id="186" style="edgeStyle=orthogonalEdgeStyle;html=1;exitX=1;exitY=0.5;exitDx=0;exitDy=0;entryX=0;entryY=0.5;entryDx=0;entryDy=0;" parent="281" source="157" target="169" edge="1">
                    <mxGeometry relative="1" as="geometry"/>
                </mxCell>
                <mxCell id="329" style="edgeStyle=none;html=1;" parent="281" source="170" target="173" edge="1">
                    <mxGeometry relative="1" as="geometry"/>
                </mxCell>
                <mxCell id="170" value="Fuerza de la correa en el ramal con tracción" style="rounded=0;whiteSpace=wrap;html=1;" parent="281" vertex="1">
                    <mxGeometry x="1163" y="247.5" width="320" height="60" as="geometry"/>
                </mxCell>
                <mxCell id="185" style="edgeStyle=orthogonalEdgeStyle;html=1;exitX=1;exitY=0.5;exitDx=0;exitDy=0;entryX=0;entryY=0.5;entryDx=0;entryDy=0;" parent="281" source="157" target="170" edge="1">
                    <mxGeometry relative="1" as="geometry"/>
                </mxCell>
                <mxCell id="171" value="Fuerza de la correa en el ramal sin tracción" style="rounded=0;whiteSpace=wrap;html=1;" parent="281" vertex="1">
                    <mxGeometry x="1163" y="327.5" width="320" height="60" as="geometry"/>
                </mxCell>
                <mxCell id="183" style="edgeStyle=orthogonalEdgeStyle;html=1;exitX=1;exitY=0.5;exitDx=0;exitDy=0;entryX=0;entryY=0.5;entryDx=0;entryDy=0;" parent="281" source="157" target="171" edge="1">
                    <mxGeometry relative="1" as="geometry"/>
                </mxCell>
                <mxCell id="172" value="Fuerza resultante sobre el eje de transmisión en el eje Z" style="rounded=0;whiteSpace=wrap;html=1;" parent="281" vertex="1">
                    <mxGeometry x="1595" y="166.5" width="320" height="60" as="geometry"/>
                </mxCell>
                <mxCell id="190" style="edgeStyle=orthogonalEdgeStyle;html=1;exitX=1;exitY=0.5;exitDx=0;exitDy=0;entryX=0;entryY=0.5;entryDx=0;entryDy=0;" parent="281" source="170" target="172" edge="1">
                    <mxGeometry relative="1" as="geometry"/>
                </mxCell>
                <mxCell id="173" value="Fuerza resultante sobre el eje de transmisión en el eje Y" style="rounded=0;whiteSpace=wrap;html=1;" parent="281" vertex="1">
                    <mxGeometry x="1595" y="246.5" width="320" height="60" as="geometry"/>
                </mxCell>
                <mxCell id="191" style="edgeStyle=orthogonalEdgeStyle;html=1;exitX=1;exitY=0.5;exitDx=0;exitDy=0;entryX=0;entryY=0.5;entryDx=0;entryDy=0;" parent="281" source="171" target="173" edge="1">
                    <mxGeometry relative="1" as="geometry"/>
                </mxCell>
                <mxCell id="174" value="Momento resultante sobre el eje de transmisión en el eje X" style="rounded=0;whiteSpace=wrap;html=1;" parent="281" vertex="1">
                    <mxGeometry x="1595" y="326.5" width="320" height="60" as="geometry"/>
                </mxCell>
                <mxCell id="196" style="edgeStyle=orthogonalEdgeStyle;html=1;exitX=1;exitY=0.5;exitDx=0;exitDy=0;entryX=0;entryY=0.5;entryDx=0;entryDy=0;" parent="281" source="170" target="174" edge="1">
                    <mxGeometry relative="1" as="geometry"/>
                </mxCell>
                <mxCell id="197" style="edgeStyle=orthogonalEdgeStyle;html=1;exitX=1;exitY=0.5;exitDx=0;exitDy=0;entryX=0;entryY=0.5;entryDx=0;entryDy=0;" parent="281" source="171" target="174" edge="1">
                    <mxGeometry relative="1" as="geometry"/>
                </mxCell>
                <mxCell id="146" value="MÓDULO DE CORREAS TRAPEZOIDALES [OPTIBELT]" style="swimlane;startSize=60;horizontal=0;html=1;fontSize=30;" parent="142" vertex="1">
                    <mxGeometry y="750" width="2098" height="820" as="geometry"/>
                </mxCell>
                <mxCell id="232" value="Parametros iniciales" style="rounded=1;whiteSpace=wrap;html=1;comic=0;" parent="146" vertex="1">
                    <mxGeometry x="148.5" y="216.25" width="140" height="75" as="geometry"/>
                </mxCell>
                <mxCell id="233" value="&lt;div style=&quot;&quot;&gt;&lt;span style=&quot;background-color: initial;&quot;&gt;- Potencia del motor&amp;nbsp; &amp;nbsp; &amp;nbsp; &amp;nbsp; &amp;nbsp; &amp;nbsp; &amp;nbsp; &amp;nbsp; &amp;nbsp;&amp;nbsp;&lt;/span&gt;&lt;/div&gt;&lt;div style=&quot;&quot;&gt;&lt;span style=&quot;background-color: initial;&quot;&gt;- RPM del motor&amp;nbsp; &amp;nbsp; &amp;nbsp; &amp;nbsp; &amp;nbsp; &amp;nbsp; &amp;nbsp; &amp;nbsp; &amp;nbsp; &amp;nbsp; &amp;nbsp; &amp;nbsp; &amp;nbsp;&amp;nbsp;&lt;/span&gt;&lt;/div&gt;&lt;div style=&quot;&quot;&gt;&lt;span style=&quot;background-color: initial;&quot;&gt;- RPM de la maquina&amp;nbsp; &amp;nbsp; &amp;nbsp; &amp;nbsp; &amp;nbsp; &amp;nbsp; &amp;nbsp; &amp;nbsp; &amp;nbsp; &amp;nbsp;&amp;nbsp;&lt;/span&gt;&lt;/div&gt;&lt;div style=&quot;&quot;&gt;&lt;span style=&quot;background-color: initial;&quot;&gt;- Horas de trabajo&amp;nbsp; &amp;nbsp; &amp;nbsp; &amp;nbsp; &amp;nbsp; &amp;nbsp; &amp;nbsp; &amp;nbsp; &amp;nbsp; &amp;nbsp; &amp;nbsp; &amp;nbsp; &amp;nbsp;&amp;nbsp;&lt;/span&gt;&lt;/div&gt;&lt;div style=&quot;&quot;&gt;&lt;span style=&quot;background-color: initial;&quot;&gt;- Distancia entre poleas&amp;nbsp; &amp;nbsp; &amp;nbsp; &amp;nbsp; &amp;nbsp; &amp;nbsp; &amp;nbsp; &amp;nbsp; &amp;nbsp; &amp;nbsp;&lt;/span&gt;&lt;/div&gt;- Caracteristica del motor&lt;span style=&quot;background-color: initial;&quot;&gt;&amp;nbsp; &amp;nbsp; &amp;nbsp; &amp;nbsp; &amp;nbsp; &amp;nbsp; &amp;nbsp; &amp;nbsp; &amp;nbsp;&amp;nbsp;&lt;/span&gt;&lt;br&gt;&lt;div style=&quot;&quot;&gt;- Caracteristica de la maquina&amp;nbsp; &amp;nbsp; &amp;nbsp; &amp;nbsp; &amp;nbsp; &amp;nbsp;&amp;nbsp;&lt;/div&gt;&lt;div style=&quot;&quot;&gt;- Sentido de giro del motor&amp;nbsp; &amp;nbsp; &amp;nbsp; &amp;nbsp; &amp;nbsp; &amp;nbsp; &amp;nbsp; &amp;nbsp; &amp;nbsp; &amp;nbsp;&lt;/div&gt;" style="shape=parallelogram;perimeter=parallelogramPerimeter;whiteSpace=wrap;html=1;fixedSize=1;align=center;" parent="146" vertex="1">
                    <mxGeometry x="91.5" y="343.75" width="254" height="140" as="geometry"/>
                </mxCell>
                <mxCell id="234" style="edgeStyle=none;html=1;entryX=0.5;entryY=0;entryDx=0;entryDy=0;" parent="146" source="232" target="233" edge="1">
                    <mxGeometry relative="1" as="geometry"/>
                </mxCell>
                <mxCell id="235" value="Ángulo de contacto entre las poleas y la correa de transmisión" style="rounded=0;whiteSpace=wrap;html=1;" parent="146" vertex="1">
                    <mxGeometry x="464.5" y="303.75" width="320" height="60" as="geometry"/>
                </mxCell>
                <mxCell id="236" style="edgeStyle=orthogonalEdgeStyle;html=1;exitX=1;exitY=0.5;exitDx=0;exitDy=0;entryX=0;entryY=0.5;entryDx=0;entryDy=0;" parent="146" source="233" target="235" edge="1">
                    <mxGeometry relative="1" as="geometry"/>
                </mxCell>
                <mxCell id="237" value="Velocidad de la correa de transmisión" style="rounded=0;whiteSpace=wrap;html=1;" parent="146" vertex="1">
                    <mxGeometry x="464.5" y="383.75" width="320" height="60" as="geometry"/>
                </mxCell>
                <mxCell id="238" style="edgeStyle=none;html=1;exitX=1;exitY=0.5;exitDx=0;exitDy=0;entryX=0;entryY=0.5;entryDx=0;entryDy=0;" parent="146" source="233" target="237" edge="1">
                    <mxGeometry relative="1" as="geometry"/>
                </mxCell>
                <mxCell id="239" value="Fuerza tangencial de transmisión" style="rounded=0;whiteSpace=wrap;html=1;" parent="146" vertex="1">
                    <mxGeometry x="464.5" y="463.75" width="320" height="60" as="geometry"/>
                </mxCell>
                <mxCell id="240" style="edgeStyle=orthogonalEdgeStyle;html=1;exitX=1;exitY=0.5;exitDx=0;exitDy=0;entryX=0;entryY=0.5;entryDx=0;entryDy=0;" parent="146" source="233" target="239" edge="1">
                    <mxGeometry relative="1" as="geometry"/>
                </mxCell>
                <mxCell id="241" style="edgeStyle=orthogonalEdgeStyle;html=1;exitX=1;exitY=0.5;exitDx=0;exitDy=0;entryX=1;entryY=0.5;entryDx=0;entryDy=0;" parent="146" source="237" target="239" edge="1">
                    <mxGeometry relative="1" as="geometry">
                        <Array as="points">
                            <mxPoint x="844.5" y="413.75"/>
                            <mxPoint x="844.5" y="493.75"/>
                        </Array>
                    </mxGeometry>
                </mxCell>
                <mxCell id="268" style="edgeStyle=orthogonalEdgeStyle;html=1;" parent="146" source="242" target="267" edge="1">
                    <mxGeometry relative="1" as="geometry"/>
                </mxCell>
                <mxCell id="242" value="- Perfil de la correa trapezoidal&amp;nbsp; &amp;nbsp; &amp;nbsp; &amp;nbsp;&amp;nbsp;&lt;br&gt;- Diámetro de la polea menor o mayor&lt;br&gt;- Longitud de la correa trapezoidal&amp;nbsp; &amp;nbsp; &amp;nbsp; &amp;nbsp; &amp;nbsp;" style="shape=parallelogram;perimeter=parallelogramPerimeter;whiteSpace=wrap;html=1;fixedSize=1;" parent="146" vertex="1">
                    <mxGeometry x="904.5" y="304" width="240" height="60" as="geometry"/>
                </mxCell>
                <mxCell id="243" style="edgeStyle=orthogonalEdgeStyle;html=1;exitX=1;exitY=0.5;exitDx=0;exitDy=0;entryX=0;entryY=0.5;entryDx=0;entryDy=0;" parent="146" source="235" target="242" edge="1">
                    <mxGeometry relative="1" as="geometry"/>
                </mxCell>
                <mxCell id="263" value="coeficientes" style="edgeLabel;html=1;align=center;verticalAlign=middle;resizable=0;points=[];" parent="243" vertex="1" connectable="0">
                    <mxGeometry x="-0.1544" relative="1" as="geometry">
                        <mxPoint x="11" as="offset"/>
                    </mxGeometry>
                </mxCell>
                <mxCell id="244" value="Longitud de las correas trapezoidales" style="rounded=0;whiteSpace=wrap;html=1;" parent="146" vertex="1">
                    <mxGeometry x="1254.5" y="223.75" width="320" height="60" as="geometry"/>
                </mxCell>
                <mxCell id="245" style="edgeStyle=orthogonalEdgeStyle;html=1;exitX=1;exitY=0.5;exitDx=0;exitDy=0;entryX=0;entryY=0.5;entryDx=0;entryDy=0;" parent="146" source="242" target="244" edge="1">
                    <mxGeometry relative="1" as="geometry"/>
                </mxCell>
                <mxCell id="246" value="Distancia real entre las poleas" style="rounded=0;whiteSpace=wrap;html=1;" parent="146" vertex="1">
                    <mxGeometry x="1254.5" y="303.75" width="320" height="60" as="geometry"/>
                </mxCell>
                <mxCell id="247" style="edgeStyle=orthogonalEdgeStyle;html=1;exitX=1;exitY=0.5;exitDx=0;exitDy=0;entryX=0;entryY=0.5;entryDx=0;entryDy=0;" parent="146" source="242" target="246" edge="1">
                    <mxGeometry relative="1" as="geometry"/>
                </mxCell>
                <mxCell id="248" value="Número de correas trapezoidales" style="rounded=0;whiteSpace=wrap;html=1;" parent="146" vertex="1">
                    <mxGeometry x="1254.5" y="383.75" width="320" height="60" as="geometry"/>
                </mxCell>
                <mxCell id="249" style="edgeStyle=orthogonalEdgeStyle;html=1;exitX=1;exitY=0.5;exitDx=0;exitDy=0;entryX=0;entryY=0.5;entryDx=0;entryDy=0;" parent="146" source="242" target="248" edge="1">
                    <mxGeometry relative="1" as="geometry"/>
                </mxCell>
                <mxCell id="250" style="edgeStyle=orthogonalEdgeStyle;html=1;exitX=1;exitY=0.5;exitDx=0;exitDy=0;entryX=0;entryY=0.5;entryDx=0;entryDy=0;" parent="146" source="251" target="260" edge="1">
                    <mxGeometry relative="1" as="geometry"/>
                </mxCell>
                <mxCell id="275" style="edgeStyle=orthogonalEdgeStyle;html=1;entryX=0;entryY=0.5;entryDx=0;entryDy=0;" parent="146" source="251" target="258" edge="1">
                    <mxGeometry relative="1" as="geometry"/>
                </mxCell>
                <mxCell id="276" style="edgeStyle=orthogonalEdgeStyle;html=1;entryX=0;entryY=0.5;entryDx=0;entryDy=0;" parent="146" source="251" target="274" edge="1">
                    <mxGeometry relative="1" as="geometry"/>
                </mxCell>
                <mxCell id="251" value="Fuerzas en los ramales de las correas trapezoidales" style="rounded=0;whiteSpace=wrap;html=1;" parent="146" vertex="1">
                    <mxGeometry x="1254.5" y="463.75" width="320" height="60" as="geometry"/>
                </mxCell>
                <mxCell id="252" style="edgeStyle=orthogonalEdgeStyle;html=1;exitX=1;exitY=0.5;exitDx=0;exitDy=0;entryX=0;entryY=0.5;entryDx=0;entryDy=0;" parent="146" source="242" target="251" edge="1">
                    <mxGeometry relative="1" as="geometry"/>
                </mxCell>
                <mxCell id="254" value="Profundidad de hundimiento del ramal" style="rounded=0;whiteSpace=wrap;html=1;" parent="146" vertex="1">
                    <mxGeometry x="1254.5" y="543.75" width="320" height="60" as="geometry"/>
                </mxCell>
                <mxCell id="255" style="edgeStyle=orthogonalEdgeStyle;html=1;exitX=1;exitY=0.5;exitDx=0;exitDy=0;entryX=0;entryY=0.5;entryDx=0;entryDy=0;" parent="146" source="242" target="254" edge="1">
                    <mxGeometry relative="1" as="geometry"/>
                </mxCell>
                <mxCell id="256" value="Fuerza resultante sobre el eje de transmisión en el eje Z" style="rounded=0;whiteSpace=wrap;html=1;" parent="146" vertex="1">
                    <mxGeometry x="1686.5" y="303.75" width="320" height="60" as="geometry"/>
                </mxCell>
                <mxCell id="257" style="edgeStyle=orthogonalEdgeStyle;html=1;exitX=1;exitY=0.5;exitDx=0;exitDy=0;entryX=0;entryY=0.5;entryDx=0;entryDy=0;" parent="146" source="251" target="256" edge="1">
                    <mxGeometry relative="1" as="geometry"/>
                </mxCell>
                <mxCell id="258" value="Fuerza resultante sobre el eje de transmisión en el eje Y" style="rounded=0;whiteSpace=wrap;html=1;" parent="146" vertex="1">
                    <mxGeometry x="1686.5" y="383.75" width="320" height="60" as="geometry"/>
                </mxCell>
                <mxCell id="260" value="Fuerza resultante sobre el eje de transmisión en el eje X" style="rounded=0;whiteSpace=wrap;html=1;" parent="146" vertex="1">
                    <mxGeometry x="1686.5" y="463.75" width="320" height="60" as="geometry"/>
                </mxCell>
                <mxCell id="267" value="Se verifica la velocidad y&lt;br&gt;la frecuencia de flexión &lt;br&gt;de la correa trapezoidal" style="rhombus;whiteSpace=wrap;html=1;" parent="146" vertex="1">
                    <mxGeometry x="910" y="383.75" width="230" height="140" as="geometry"/>
                </mxCell>
                <mxCell id="274" value="Momento resultante sobre el eje de transmisión en el eje X" style="rounded=0;whiteSpace=wrap;html=1;" parent="146" vertex="1">
                    <mxGeometry x="1686.5" y="543.75" width="320" height="60" as="geometry"/>
                </mxCell>
                <mxCell id="145" value="MÓDULO DE CADENAS [RENOLD]" style="swimlane;startSize=60;horizontal=0;html=1;fontSize=30;" parent="142" vertex="1">
                    <mxGeometry y="1570" width="2098" height="560" as="geometry"/>
                </mxCell>
                <mxCell id="283" value="Parametros iniciales" style="rounded=1;whiteSpace=wrap;html=1;comic=0;" parent="145" vertex="1">
                    <mxGeometry x="148.5" y="86.25" width="140" height="75" as="geometry"/>
                </mxCell>
                <mxCell id="313" style="edgeStyle=none;html=1;entryX=0;entryY=0.5;entryDx=0;entryDy=0;" parent="145" source="284" target="312" edge="1">
                    <mxGeometry relative="1" as="geometry"/>
                </mxCell>
                <mxCell id="284" value="&lt;div style=&quot;&quot;&gt;&lt;span style=&quot;background-color: initial;&quot;&gt;- Potencia del motor&amp;nbsp; &amp;nbsp; &amp;nbsp; &amp;nbsp; &amp;nbsp; &amp;nbsp; &amp;nbsp; &amp;nbsp; &amp;nbsp; &amp;nbsp;&lt;/span&gt;&lt;/div&gt;&lt;div style=&quot;&quot;&gt;&lt;span style=&quot;background-color: initial;&quot;&gt;- RPM del motor&amp;nbsp; &amp;nbsp; &amp;nbsp; &amp;nbsp; &amp;nbsp; &amp;nbsp; &amp;nbsp; &amp;nbsp; &amp;nbsp; &amp;nbsp; &amp;nbsp; &amp;nbsp; &amp;nbsp; &amp;nbsp;&lt;/span&gt;&lt;/div&gt;&lt;div style=&quot;&quot;&gt;&lt;span style=&quot;background-color: initial;&quot;&gt;- Número de dientes del piñon&amp;nbsp; &amp;nbsp; &amp;nbsp;&amp;nbsp;&lt;/span&gt;&lt;/div&gt;&lt;div style=&quot;&quot;&gt;&lt;span style=&quot;background-color: initial;&quot;&gt;- Número de dientes de la corona&amp;nbsp; &amp;nbsp;&lt;/span&gt;&lt;/div&gt;&lt;div style=&quot;&quot;&gt;&lt;span style=&quot;background-color: initial;&quot;&gt;- Distancia entre sprockets&amp;nbsp; &amp;nbsp; &amp;nbsp; &amp;nbsp; &amp;nbsp; &amp;nbsp; &amp;nbsp; &amp;nbsp;&lt;/span&gt;&lt;/div&gt;&lt;div style=&quot;&quot;&gt;- Caracteristica de la maquina&amp;nbsp; &amp;nbsp; &amp;nbsp; &amp;nbsp; &amp;nbsp; &amp;nbsp;&lt;/div&gt;&lt;div style=&quot;&quot;&gt;- Caracteristica del motor&amp;nbsp; &amp;nbsp; &amp;nbsp; &amp;nbsp; &amp;nbsp; &amp;nbsp; &amp;nbsp; &amp;nbsp; &amp;nbsp; &amp;nbsp;&amp;nbsp;&lt;/div&gt;&lt;div style=&quot;&quot;&gt;- Sentido de giro del motor&amp;nbsp; &amp;nbsp; &amp;nbsp; &amp;nbsp; &amp;nbsp; &amp;nbsp; &amp;nbsp; &amp;nbsp; &amp;nbsp; &amp;nbsp;&lt;/div&gt;" style="shape=parallelogram;perimeter=parallelogramPerimeter;whiteSpace=wrap;html=1;fixedSize=1;align=center;" parent="145" vertex="1">
                    <mxGeometry x="91.5" y="213.75" width="254" height="140" as="geometry"/>
                </mxCell>
                <mxCell id="285" style="edgeStyle=none;html=1;entryX=0.5;entryY=0;entryDx=0;entryDy=0;" parent="145" source="283" target="284" edge="1">
                    <mxGeometry relative="1" as="geometry"/>
                </mxCell>
                <mxCell id="295" value="Longitud de la cadena" style="rounded=0;whiteSpace=wrap;html=1;" parent="145" vertex="1">
                    <mxGeometry x="1254.5" y="93.75" width="320" height="60" as="geometry"/>
                </mxCell>
                <mxCell id="296" style="edgeStyle=orthogonalEdgeStyle;html=1;exitX=1;exitY=0.5;exitDx=0;exitDy=0;entryX=0;entryY=0.5;entryDx=0;entryDy=0;" parent="145" target="295" edge="1">
                    <mxGeometry relative="1" as="geometry">
                        <mxPoint x="1134.5" y="283.75" as="sourcePoint"/>
                    </mxGeometry>
                </mxCell>
                <mxCell id="297" value="Distancia entre los centros de los sprockets" style="rounded=0;whiteSpace=wrap;html=1;" parent="145" vertex="1">
                    <mxGeometry x="1254.5" y="173.75" width="320" height="60" as="geometry"/>
                </mxCell>
                <mxCell id="298" style="edgeStyle=orthogonalEdgeStyle;html=1;exitX=1;exitY=0.5;exitDx=0;exitDy=0;entryX=0;entryY=0.5;entryDx=0;entryDy=0;" parent="145" target="297" edge="1">
                    <mxGeometry relative="1" as="geometry">
                        <mxPoint x="1134.5" y="283.75" as="sourcePoint"/>
                    </mxGeometry>
                </mxCell>
                <mxCell id="299" value="Valocidad de la cadena" style="rounded=0;whiteSpace=wrap;html=1;" parent="145" vertex="1">
                    <mxGeometry x="1254.5" y="253.75" width="320" height="60" as="geometry"/>
                </mxCell>
                <mxCell id="325" style="edgeStyle=none;html=1;entryX=0;entryY=0.5;entryDx=0;entryDy=0;" parent="145" source="301" target="307" edge="1">
                    <mxGeometry relative="1" as="geometry"/>
                </mxCell>
                <mxCell id="301" value="Fuerza transmitida por la cadena" style="rounded=0;whiteSpace=wrap;html=1;" parent="145" vertex="1">
                    <mxGeometry x="1254.5" y="333.75" width="320" height="60" as="geometry"/>
                </mxCell>
                <mxCell id="302" style="edgeStyle=orthogonalEdgeStyle;html=1;exitX=1;exitY=0.5;exitDx=0;exitDy=0;entryX=0;entryY=0.5;entryDx=0;entryDy=0;" parent="145" target="301" edge="1">
                    <mxGeometry relative="1" as="geometry">
                        <mxPoint x="1134.5" y="283.75" as="sourcePoint"/>
                    </mxGeometry>
                </mxCell>
                <mxCell id="303" value="Factor de seguridad y capacidad de la cadena" style="rounded=0;whiteSpace=wrap;html=1;" parent="145" vertex="1">
                    <mxGeometry x="1254.5" y="413.75" width="320" height="60" as="geometry"/>
                </mxCell>
                <mxCell id="304" style="edgeStyle=orthogonalEdgeStyle;html=1;exitX=1;exitY=0.5;exitDx=0;exitDy=0;entryX=0;entryY=0.5;entryDx=0;entryDy=0;" parent="145" target="303" edge="1">
                    <mxGeometry relative="1" as="geometry">
                        <mxPoint x="1134.5" y="283.75" as="sourcePoint"/>
                    </mxGeometry>
                </mxCell>
                <mxCell id="305" value="Fuerza resultante sobre el eje de transmisión en el eje Z" style="rounded=0;whiteSpace=wrap;html=1;" parent="145" vertex="1">
                    <mxGeometry x="1686.5" y="252.75" width="320" height="60" as="geometry"/>
                </mxCell>
                <mxCell id="306" style="edgeStyle=orthogonalEdgeStyle;html=1;exitX=1;exitY=0.5;exitDx=0;exitDy=0;entryX=0;entryY=0.5;entryDx=0;entryDy=0;" parent="145" source="301" target="305" edge="1">
                    <mxGeometry relative="1" as="geometry"/>
                </mxCell>
                <mxCell id="307" value="Fuerza resultante sobre el eje de transmisión en el eje Y" style="rounded=0;whiteSpace=wrap;html=1;" parent="145" vertex="1">
                    <mxGeometry x="1686.5" y="332.75" width="320" height="60" as="geometry"/>
                </mxCell>
                <mxCell id="309" value="Momento resultante sobre el eje de transmisión en el eje X" style="rounded=0;whiteSpace=wrap;html=1;" parent="145" vertex="1">
                    <mxGeometry x="1686.5" y="412.75" width="320" height="60" as="geometry"/>
                </mxCell>
                <mxCell id="310" style="edgeStyle=orthogonalEdgeStyle;html=1;exitX=1;exitY=0.5;exitDx=0;exitDy=0;entryX=0;entryY=0.5;entryDx=0;entryDy=0;" parent="145" source="301" target="309" edge="1">
                    <mxGeometry relative="1" as="geometry"/>
                </mxCell>
                <mxCell id="324" style="edgeStyle=none;html=1;entryX=0;entryY=0.5;entryDx=0;entryDy=0;" parent="145" source="312" target="322" edge="1">
                    <mxGeometry relative="1" as="geometry"/>
                </mxCell>
                <mxCell id="312" value="Selección de la cadena" style="rhombus;whiteSpace=wrap;html=1;" parent="145" vertex="1">
                    <mxGeometry x="525" y="207.75" width="200" height="150" as="geometry"/>
                </mxCell>
                <mxCell id="321" style="edgeStyle=none;html=1;exitX=0.5;exitY=1;exitDx=0;exitDy=0;entryX=0.5;entryY=0;entryDx=0;entryDy=0;" parent="145" source="318" target="312" edge="1">
                    <mxGeometry relative="1" as="geometry"/>
                </mxCell>
                <mxCell id="318" value="- Simplex&lt;br&gt;- Duplex&lt;br&gt;- Triplex&lt;br&gt;- Cuadruplex" style="shape=parallelogram;perimeter=parallelogramPerimeter;whiteSpace=wrap;html=1;fixedSize=1;" parent="145" vertex="1">
                    <mxGeometry x="465" y="86.25" width="320" height="75" as="geometry"/>
                </mxCell>
                <mxCell id="320" style="edgeStyle=none;html=1;entryX=0.5;entryY=1;entryDx=0;entryDy=0;" parent="145" source="319" target="312" edge="1">
                    <mxGeometry relative="1" as="geometry"/>
                </mxCell>
                <mxCell id="319" value="- Americana&lt;br&gt;- Europea" style="shape=parallelogram;perimeter=parallelogramPerimeter;whiteSpace=wrap;html=1;fixedSize=1;" parent="145" vertex="1">
                    <mxGeometry x="465" y="406.25" width="320" height="75" as="geometry"/>
                </mxCell>
                <mxCell id="328" style="edgeStyle=none;html=1;exitX=1;exitY=0.5;exitDx=0;exitDy=0;entryX=0;entryY=0.5;entryDx=0;entryDy=0;" parent="145" source="322" target="299" edge="1">
                    <mxGeometry relative="1" as="geometry"/>
                </mxCell>
                <mxCell id="322" value="Paso de la cadena y tipo de lubricación" style="rounded=0;whiteSpace=wrap;html=1;" parent="145" vertex="1">
                    <mxGeometry x="910" y="253.75" width="230" height="60" as="geometry"/>
                </mxCell>
                <mxCell id="144" value="MÓDULO DE ENGRANAJES [AGMA]&amp;nbsp;" style="swimlane;startSize=60;horizontal=0;html=1;fontSize=30;" parent="142" vertex="1">
                    <mxGeometry y="2130" width="2098" height="570" as="geometry"/>
                </mxCell>
                <mxCell id="372" style="edgeStyle=orthogonalEdgeStyle;html=1;exitX=0.5;exitY=1;exitDx=0;exitDy=0;entryX=0.5;entryY=0;entryDx=0;entryDy=0;" parent="144" source="338" target="339" edge="1">
                    <mxGeometry relative="1" as="geometry"/>
                </mxCell>
                <mxCell id="338" value="Parametros iniciales" style="rounded=1;whiteSpace=wrap;html=1;comic=0;" parent="144" vertex="1">
                    <mxGeometry x="148.5" y="86" width="140" height="75" as="geometry"/>
                </mxCell>
                <mxCell id="339" value="&lt;div style=&quot;&quot;&gt;- Temperatura de operación&amp;nbsp; &amp;nbsp; &amp;nbsp;&amp;nbsp;&lt;/div&gt;&lt;div style=&quot;&quot;&gt;- Relación de transmisión&amp;nbsp; &amp;nbsp; &amp;nbsp; &amp;nbsp; &amp;nbsp;&amp;nbsp;&lt;/div&gt;&lt;div style=&quot;&quot;&gt;- Ciclos de vida&amp;nbsp; &amp;nbsp; &amp;nbsp; &amp;nbsp; &amp;nbsp; &amp;nbsp; &amp;nbsp; &amp;nbsp; &amp;nbsp; &amp;nbsp; &amp;nbsp; &amp;nbsp; &amp;nbsp; &amp;nbsp;&lt;/div&gt;&lt;div style=&quot;&quot;&gt;- Tipo de engranaje&amp;nbsp; &amp;nbsp; &amp;nbsp; &amp;nbsp; &amp;nbsp; &amp;nbsp; &amp;nbsp; &amp;nbsp; &amp;nbsp; &amp;nbsp; &amp;nbsp;&lt;/div&gt;&lt;div style=&quot;&quot;&gt;- Ángulo de presión&amp;nbsp; &amp;nbsp; &amp;nbsp; &amp;nbsp; &amp;nbsp; &amp;nbsp; &amp;nbsp; &amp;nbsp; &amp;nbsp; &amp;nbsp; &amp;nbsp;&lt;/div&gt;&lt;div style=&quot;&quot;&gt;- Ángulo de helice&amp;nbsp; &amp;nbsp; &amp;nbsp; &amp;nbsp; &amp;nbsp; &amp;nbsp; &amp;nbsp; &amp;nbsp; &amp;nbsp; &amp;nbsp; &amp;nbsp; &amp;nbsp;&amp;nbsp;&lt;/div&gt;&lt;div style=&quot;&quot;&gt;- Carga en el motor&amp;nbsp; &amp;nbsp; &amp;nbsp; &amp;nbsp; &amp;nbsp; &amp;nbsp; &amp;nbsp; &amp;nbsp; &amp;nbsp; &amp;nbsp; &amp;nbsp;&amp;nbsp;&lt;/div&gt;&lt;div style=&quot;&quot;&gt;- Carga en la maquina&amp;nbsp; &amp;nbsp; &amp;nbsp; &amp;nbsp; &amp;nbsp; &amp;nbsp; &amp;nbsp; &amp;nbsp; &amp;nbsp;&amp;nbsp;&lt;/div&gt;&lt;div style=&quot;&quot;&gt;- Potencia del motor&amp;nbsp; &amp;nbsp; &amp;nbsp; &amp;nbsp; &amp;nbsp; &amp;nbsp; &amp;nbsp; &amp;nbsp; &amp;nbsp; &amp;nbsp; &amp;nbsp;&amp;nbsp;&lt;/div&gt;&lt;div style=&quot;&quot;&gt;- Módulo&amp;nbsp; &amp;nbsp; &amp;nbsp; &amp;nbsp; &amp;nbsp; &amp;nbsp; &amp;nbsp; &amp;nbsp; &amp;nbsp; &amp;nbsp; &amp;nbsp; &amp;nbsp; &amp;nbsp; &amp;nbsp; &amp;nbsp; &amp;nbsp; &amp;nbsp; &amp;nbsp; &amp;nbsp; &amp;nbsp; &amp;nbsp;&lt;/div&gt;&lt;div style=&quot;&quot;&gt;- Número de dientes&amp;nbsp; &amp;nbsp; &amp;nbsp; &amp;nbsp; &amp;nbsp; &amp;nbsp; &amp;nbsp; &amp;nbsp; &amp;nbsp; &amp;nbsp; &amp;nbsp; &amp;nbsp;&lt;/div&gt;&lt;div style=&quot;&quot;&gt;- Ancho del diente&amp;nbsp; &amp;nbsp; &amp;nbsp; &amp;nbsp; &amp;nbsp; &amp;nbsp; &amp;nbsp; &amp;nbsp; &amp;nbsp; &amp;nbsp; &amp;nbsp; &amp;nbsp; &amp;nbsp; &amp;nbsp;&lt;/div&gt;&lt;div style=&quot;&quot;&gt;- RPM&amp;nbsp; &amp;nbsp; &amp;nbsp; &amp;nbsp; &amp;nbsp; &amp;nbsp; &amp;nbsp; &amp;nbsp; &amp;nbsp; &amp;nbsp; &amp;nbsp; &amp;nbsp; &amp;nbsp; &amp;nbsp; &amp;nbsp; &amp;nbsp; &amp;nbsp; &amp;nbsp; &amp;nbsp; &amp;nbsp; &amp;nbsp; &amp;nbsp; &amp;nbsp;&amp;nbsp;&lt;/div&gt;&lt;div style=&quot;&quot;&gt;- Material&amp;nbsp; &amp;nbsp; &amp;nbsp; &amp;nbsp; &amp;nbsp; &amp;nbsp; &amp;nbsp; &amp;nbsp; &amp;nbsp; &amp;nbsp; &amp;nbsp; &amp;nbsp; &amp;nbsp; &amp;nbsp; &amp;nbsp; &amp;nbsp; &amp;nbsp; &amp;nbsp; &amp;nbsp; &amp;nbsp; &amp;nbsp;&amp;nbsp;&lt;/div&gt;&lt;div style=&quot;&quot;&gt;- Tratamiento termico&amp;nbsp; &amp;nbsp; &amp;nbsp; &amp;nbsp; &amp;nbsp; &amp;nbsp; &amp;nbsp; &amp;nbsp; &amp;nbsp; &amp;nbsp; &amp;nbsp; &amp;nbsp;&amp;nbsp;&lt;/div&gt;&lt;div style=&quot;&quot;&gt;- Dureza&amp;nbsp; &amp;nbsp; &amp;nbsp; &amp;nbsp; &amp;nbsp; &amp;nbsp; &amp;nbsp; &amp;nbsp; &amp;nbsp; &amp;nbsp; &amp;nbsp; &amp;nbsp; &amp;nbsp; &amp;nbsp; &amp;nbsp; &amp;nbsp; &amp;nbsp; &amp;nbsp; &amp;nbsp; &amp;nbsp; &amp;nbsp; &amp;nbsp;&amp;nbsp;&lt;/div&gt;&lt;div style=&quot;&quot;&gt;- Resistencia admisible a la picadura&lt;/div&gt;&lt;div style=&quot;&quot;&gt;- Resistencia admisible a la flexión&amp;nbsp; &amp;nbsp;&amp;nbsp;&lt;/div&gt;&lt;div style=&quot;&quot;&gt;- Calidad&amp;nbsp; &amp;nbsp; &amp;nbsp; &amp;nbsp; &amp;nbsp; &amp;nbsp; &amp;nbsp; &amp;nbsp; &amp;nbsp; &amp;nbsp; &amp;nbsp; &amp;nbsp; &amp;nbsp; &amp;nbsp; &amp;nbsp; &amp;nbsp; &amp;nbsp; &amp;nbsp; &amp;nbsp; &amp;nbsp; &amp;nbsp; &amp;nbsp; &amp;nbsp;&lt;/div&gt;&lt;div style=&quot;&quot;&gt;- Confiabilidad&amp;nbsp; &amp;nbsp; &amp;nbsp; &amp;nbsp; &amp;nbsp; &amp;nbsp; &amp;nbsp; &amp;nbsp; &amp;nbsp; &amp;nbsp; &amp;nbsp; &amp;nbsp; &amp;nbsp; &amp;nbsp; &amp;nbsp; &amp;nbsp; &amp;nbsp; &amp;nbsp; &amp;nbsp;&lt;/div&gt;&lt;div style=&quot;&quot;&gt;- Espesor&amp;nbsp; &amp;nbsp; &amp;nbsp; &amp;nbsp; &amp;nbsp; &amp;nbsp; &amp;nbsp; &amp;nbsp; &amp;nbsp; &amp;nbsp; &amp;nbsp; &amp;nbsp; &amp;nbsp; &amp;nbsp; &amp;nbsp; &amp;nbsp; &amp;nbsp; &amp;nbsp; &amp;nbsp; &amp;nbsp; &amp;nbsp; &amp;nbsp; &amp;nbsp;&lt;/div&gt;" style="shape=parallelogram;perimeter=parallelogramPerimeter;whiteSpace=wrap;html=1;fixedSize=1;align=center;" parent="144" vertex="1">
                    <mxGeometry x="91.5" y="206" width="254" height="320" as="geometry"/>
                </mxCell>
                <mxCell id="374" style="edgeStyle=orthogonalEdgeStyle;html=1;exitX=0.989;exitY=0.247;exitDx=0;exitDy=0;entryX=0;entryY=0.5;entryDx=0;entryDy=0;exitPerimeter=0;" parent="144" source="339" target="342" edge="1">
                    <mxGeometry relative="1" as="geometry"/>
                </mxCell>
                <mxCell id="376" style="edgeStyle=orthogonalEdgeStyle;html=1;exitX=1;exitY=0.5;exitDx=0;exitDy=0;entryX=0;entryY=0.5;entryDx=0;entryDy=0;" parent="144" source="342" target="346" edge="1">
                    <mxGeometry relative="1" as="geometry"/>
                </mxCell>
                <mxCell id="377" style="edgeStyle=orthogonalEdgeStyle;html=1;exitX=1;exitY=0.5;exitDx=0;exitDy=0;entryX=0;entryY=0.5;entryDx=0;entryDy=0;" parent="144" source="342" target="347" edge="1">
                    <mxGeometry relative="1" as="geometry"/>
                </mxCell>
                <mxCell id="378" style="edgeStyle=orthogonalEdgeStyle;html=1;exitX=1;exitY=0.5;exitDx=0;exitDy=0;entryX=0;entryY=0.5;entryDx=0;entryDy=0;" parent="144" source="342" target="345" edge="1">
                    <mxGeometry relative="1" as="geometry"/>
                </mxCell>
                <mxCell id="379" style="edgeStyle=orthogonalEdgeStyle;html=1;exitX=1;exitY=0.5;exitDx=0;exitDy=0;entryX=0;entryY=0.5;entryDx=0;entryDy=0;" parent="144" source="342" target="344" edge="1">
                    <mxGeometry relative="1" as="geometry"/>
                </mxCell>
                <mxCell id="380" style="edgeStyle=orthogonalEdgeStyle;html=1;exitX=1;exitY=0.5;exitDx=0;exitDy=0;entryX=0;entryY=0.5;entryDx=0;entryDy=0;" parent="144" source="342" target="349" edge="1">
                    <mxGeometry relative="1" as="geometry"/>
                </mxCell>
                <mxCell id="381" style="edgeStyle=orthogonalEdgeStyle;html=1;exitX=1;exitY=0.5;exitDx=0;exitDy=0;entryX=0;entryY=0.5;entryDx=0;entryDy=0;" parent="144" source="342" target="348" edge="1">
                    <mxGeometry relative="1" as="geometry"/>
                </mxCell>
                <mxCell id="382" style="edgeStyle=orthogonalEdgeStyle;html=1;exitX=1;exitY=0.5;exitDx=0;exitDy=0;entryX=0;entryY=0.5;entryDx=0;entryDy=0;" parent="144" source="342" target="355" edge="1">
                    <mxGeometry relative="1" as="geometry">
                        <Array as="points">
                            <mxPoint x="1200" y="285"/>
                            <mxPoint x="1200" y="205"/>
                        </Array>
                    </mxGeometry>
                </mxCell>
                <mxCell id="383" style="edgeStyle=orthogonalEdgeStyle;html=1;exitX=1;exitY=0.5;exitDx=0;exitDy=0;entryX=0;entryY=0.5;entryDx=0;entryDy=0;" parent="144" source="342" target="360" edge="1">
                    <mxGeometry relative="1" as="geometry">
                        <Array as="points">
                            <mxPoint x="1200" y="285"/>
                            <mxPoint x="1200" y="365"/>
                        </Array>
                    </mxGeometry>
                </mxCell>
                <mxCell id="342" value="Cálculo de los factores propios de la picadura superficial y de la flexión" style="rounded=0;whiteSpace=wrap;html=1;" parent="144" vertex="1">
                    <mxGeometry x="465" y="247.5" width="320" height="75" as="geometry"/>
                </mxCell>
                <mxCell id="350" value="" style="group" parent="144" vertex="1" connectable="0">
                    <mxGeometry x="910" y="72" width="230" height="425" as="geometry"/>
                </mxCell>
                <mxCell id="344" value="Esfuerzo por picadura" style="rounded=0;whiteSpace=wrap;html=1;" parent="350" vertex="1">
                    <mxGeometry y="146" width="230" height="60" as="geometry"/>
                </mxCell>
                <mxCell id="345" value="Esfuerzo admisible a la flexión" style="rounded=0;whiteSpace=wrap;html=1;" parent="350" vertex="1">
                    <mxGeometry y="73" width="230" height="60" as="geometry"/>
                </mxCell>
                <mxCell id="346" value="Esfuerzo admisible a la picadura" style="rounded=0;whiteSpace=wrap;html=1;" parent="350" vertex="1">
                    <mxGeometry width="230" height="60" as="geometry"/>
                </mxCell>
                <mxCell id="347" value="Potencia a transmitir por flexión" style="rounded=0;whiteSpace=wrap;html=1;" parent="350" vertex="1">
                    <mxGeometry y="365" width="230" height="60" as="geometry"/>
                </mxCell>
                <mxCell id="348" value="Potencia a trasmitir por picadura" style="rounded=0;whiteSpace=wrap;html=1;" parent="350" vertex="1">
                    <mxGeometry y="292" width="230" height="60" as="geometry"/>
                </mxCell>
                <mxCell id="349" value="Esfuerzo por flexión" style="rounded=0;whiteSpace=wrap;html=1;" parent="350" vertex="1">
                    <mxGeometry y="219" width="230" height="60" as="geometry"/>
                </mxCell>
                <mxCell id="355" value="Factor de seguridad para la picadura" style="rounded=0;whiteSpace=wrap;html=1;" parent="144" vertex="1">
                    <mxGeometry x="1255" y="174.5" width="320" height="60" as="geometry"/>
                </mxCell>
                <mxCell id="356" value="Factor de seguridad para la flexión" style="rounded=0;whiteSpace=wrap;html=1;" parent="144" vertex="1">
                    <mxGeometry x="1255" y="254.5" width="320" height="60" as="geometry"/>
                </mxCell>
                <mxCell id="360" value="Potencia permisible a transmitir" style="rounded=0;whiteSpace=wrap;html=1;" parent="144" vertex="1">
                    <mxGeometry x="1255" y="334.5" width="320" height="60" as="geometry"/>
                </mxCell>
                <mxCell id="362" value="Fuerza resultante sobre el eje de transmisión en el eje Z" style="rounded=0;whiteSpace=wrap;html=1;" parent="144" vertex="1">
                    <mxGeometry x="1687" y="174.5" width="320" height="60" as="geometry"/>
                </mxCell>
                <mxCell id="363" style="edgeStyle=orthogonalEdgeStyle;html=1;exitX=1;exitY=0.5;exitDx=0;exitDy=0;entryX=0;entryY=0.5;entryDx=0;entryDy=0;" parent="144" source="360" target="362" edge="1">
                    <mxGeometry relative="1" as="geometry"/>
                </mxCell>
                <mxCell id="364" value="Fuerza resultante sobre el eje de transmisión en el eje Y" style="rounded=0;whiteSpace=wrap;html=1;" parent="144" vertex="1">
                    <mxGeometry x="1687" y="254.5" width="320" height="60" as="geometry"/>
                </mxCell>
                <mxCell id="358" style="edgeStyle=orthogonalEdgeStyle;html=1;entryX=0;entryY=0.5;entryDx=0;entryDy=0;" parent="144" source="360" target="364" edge="1">
                    <mxGeometry relative="1" as="geometry"/>
                </mxCell>
                <mxCell id="365" value="Fuerza resultante sobre el eje de transmisión en el eje X" style="rounded=0;whiteSpace=wrap;html=1;" parent="144" vertex="1">
                    <mxGeometry x="1687" y="334.5" width="320" height="60" as="geometry"/>
                </mxCell>
                <mxCell id="357" style="edgeStyle=orthogonalEdgeStyle;html=1;exitX=1;exitY=0.5;exitDx=0;exitDy=0;entryX=0;entryY=0.5;entryDx=0;entryDy=0;" parent="144" source="360" target="365" edge="1">
                    <mxGeometry relative="1" as="geometry"/>
                </mxCell>
                <mxCell id="366" value="Momento resultante sobre el eje de transmisión en el eje X" style="rounded=0;whiteSpace=wrap;html=1;" parent="144" vertex="1">
                    <mxGeometry x="1687" y="414.5" width="320" height="60" as="geometry"/>
                </mxCell>
                <mxCell id="359" style="edgeStyle=orthogonalEdgeStyle;html=1;entryX=0;entryY=0.5;entryDx=0;entryDy=0;" parent="144" source="360" target="366" edge="1">
                    <mxGeometry relative="1" as="geometry"/>
                </mxCell>
                <mxCell id="143" value="MÓDULO DE EJES DE TRANSMISIÓN DE POTENCIA" style="swimlane;startSize=60;horizontal=0;html=1;fontSize=30;" parent="142" vertex="1">
                    <mxGeometry y="2700" width="2098" height="800" as="geometry"/>
                </mxCell>
                <mxCell id="2" value="Parametros iniciales" style="rounded=1;whiteSpace=wrap;html=1;comic=0;" parent="143" vertex="1">
                    <mxGeometry x="144" y="65" width="140" height="75" as="geometry"/>
                </mxCell>
                <mxCell id="3" value="Número de nodos" style="shape=parallelogram;perimeter=parallelogramPerimeter;whiteSpace=wrap;html=1;fixedSize=1;" parent="143" vertex="1">
                    <mxGeometry x="144" y="305" width="140" height="60" as="geometry"/>
                </mxCell>
                <mxCell id="19" style="edgeStyle=orthogonalEdgeStyle;html=1;exitX=0.5;exitY=1;exitDx=0;exitDy=0;entryX=0.5;entryY=0;entryDx=0;entryDy=0;strokeColor=default;" parent="143" source="2" target="3" edge="1">
                    <mxGeometry relative="1" as="geometry"/>
                </mxCell>
                <mxCell id="4" value="Se actualizan 6 tablas en función al número de nodos [N] y tramos [N - 1]" style="rounded=0;whiteSpace=wrap;html=1;" parent="143" vertex="1">
                    <mxGeometry x="314" y="305" width="220" height="60" as="geometry"/>
                </mxCell>
                <mxCell id="20" style="edgeStyle=orthogonalEdgeStyle;html=1;exitX=1;exitY=0.5;exitDx=0;exitDy=0;entryX=0;entryY=0.5;entryDx=0;entryDy=0;strokeColor=default;" parent="143" source="3" target="4" edge="1">
                    <mxGeometry relative="1" as="geometry"/>
                </mxCell>
                <mxCell id="5" value="Tabla de propiedades geométricas y mecánicas, de cargas distribuidas y del número de elementos" style="text;html=1;strokeColor=none;fillColor=none;align=center;verticalAlign=middle;whiteSpace=wrap;rounded=0;comic=0;" parent="143" vertex="1">
                    <mxGeometry x="589" y="141" width="300" height="50" as="geometry"/>
                </mxCell>
                <mxCell id="14" style="edgeStyle=orthogonalEdgeStyle;html=1;exitX=1;exitY=0.5;exitDx=0;exitDy=0;entryX=0;entryY=0.5;entryDx=0;entryDy=0;strokeColor=default;" parent="143" source="4" target="5" edge="1">
                    <mxGeometry relative="1" as="geometry"/>
                </mxCell>
                <mxCell id="6" value="Tabla de fuerzas, momentos y apoyos&lt;br&gt;" style="text;html=1;strokeColor=none;fillColor=none;align=center;verticalAlign=middle;whiteSpace=wrap;rounded=0;comic=0;" parent="143" vertex="1">
                    <mxGeometry x="589" y="209" width="300" height="50" as="geometry"/>
                </mxCell>
                <mxCell id="15" style="edgeStyle=orthogonalEdgeStyle;html=1;exitX=1;exitY=0.5;exitDx=0;exitDy=0;entryX=0;entryY=0.5;entryDx=0;entryDy=0;strokeColor=default;" parent="143" source="4" target="6" edge="1">
                    <mxGeometry relative="1" as="geometry"/>
                </mxCell>
                <mxCell id="22" style="edgeStyle=orthogonalEdgeStyle;html=1;exitX=1;exitY=0.5;exitDx=0;exitDy=0;entryX=1;entryY=0.5;entryDx=0;entryDy=0;strokeColor=default;" parent="143" source="5" target="6" edge="1">
                    <mxGeometry relative="1" as="geometry">
                        <Array as="points">
                            <mxPoint x="904" y="166"/>
                            <mxPoint x="904" y="234"/>
                        </Array>
                    </mxGeometry>
                </mxCell>
                <mxCell id="7" value="Tabla de factores de concentración de esfuerzos estáticos y dinámicos" style="text;html=1;strokeColor=none;fillColor=none;align=center;verticalAlign=middle;whiteSpace=wrap;rounded=0;comic=0;" parent="143" vertex="1">
                    <mxGeometry x="589" y="277" width="300" height="50" as="geometry"/>
                </mxCell>
                <mxCell id="16" style="edgeStyle=orthogonalEdgeStyle;html=1;exitX=1;exitY=0.5;exitDx=0;exitDy=0;entryX=0;entryY=0.5;entryDx=0;entryDy=0;strokeColor=default;" parent="143" source="4" target="7" edge="1">
                    <mxGeometry relative="1" as="geometry"/>
                </mxCell>
                <mxCell id="23" style="edgeStyle=orthogonalEdgeStyle;html=1;exitX=1;exitY=0.5;exitDx=0;exitDy=0;entryX=1;entryY=0.5;entryDx=0;entryDy=0;strokeColor=default;" parent="143" source="6" target="7" edge="1">
                    <mxGeometry relative="1" as="geometry">
                        <Array as="points">
                            <mxPoint x="904" y="234"/>
                            <mxPoint x="904" y="302"/>
                        </Array>
                    </mxGeometry>
                </mxCell>
                <mxCell id="8" value="Tabla de factores que modifican el límite de la fatiga" style="text;html=1;strokeColor=none;fillColor=none;align=center;verticalAlign=middle;whiteSpace=wrap;rounded=0;comic=0;" parent="143" vertex="1">
                    <mxGeometry x="589" y="345" width="300" height="50" as="geometry"/>
                </mxCell>
                <mxCell id="13" style="edgeStyle=orthogonalEdgeStyle;html=1;exitX=1;exitY=0.5;exitDx=0;exitDy=0;entryX=0;entryY=0.5;entryDx=0;entryDy=0;strokeColor=default;" parent="143" source="4" target="8" edge="1">
                    <mxGeometry relative="1" as="geometry"/>
                </mxCell>
                <mxCell id="27" style="edgeStyle=orthogonalEdgeStyle;html=1;exitX=1;exitY=0.5;exitDx=0;exitDy=0;entryX=1;entryY=0.5;entryDx=0;entryDy=0;strokeColor=default;" parent="143" source="7" target="8" edge="1">
                    <mxGeometry relative="1" as="geometry">
                        <Array as="points">
                            <mxPoint x="904" y="302"/>
                            <mxPoint x="904" y="370"/>
                        </Array>
                    </mxGeometry>
                </mxCell>
                <mxCell id="9" value="Tabla de reacciones de fuerzas y momentos, de esfuerzos estáticos máximos y de factores de seguridad estáticos mínimos" style="text;html=1;strokeColor=none;fillColor=none;align=center;verticalAlign=middle;whiteSpace=wrap;rounded=0;comic=0;" parent="143" vertex="1">
                    <mxGeometry x="589" y="413" width="300" height="50" as="geometry"/>
                </mxCell>
                <mxCell id="17" style="edgeStyle=orthogonalEdgeStyle;html=1;exitX=1;exitY=0.5;exitDx=0;exitDy=0;entryX=0;entryY=0.5;entryDx=0;entryDy=0;strokeColor=default;" parent="143" source="4" target="9" edge="1">
                    <mxGeometry relative="1" as="geometry"/>
                </mxCell>
                <mxCell id="10" value="Tabla de deformaciones lineales y angularess, de esfuerzos dinámicos máximos y de factores de seguridad dinámicos mínimos" style="text;html=1;strokeColor=none;fillColor=none;align=center;verticalAlign=middle;whiteSpace=wrap;rounded=0;comic=0;" parent="143" vertex="1">
                    <mxGeometry x="589" y="481" width="300" height="50" as="geometry"/>
                </mxCell>
                <mxCell id="18" style="edgeStyle=orthogonalEdgeStyle;html=1;exitX=1;exitY=0.5;exitDx=0;exitDy=0;entryX=0;entryY=0.5;entryDx=0;entryDy=0;strokeColor=default;" parent="143" source="4" target="10" edge="1">
                    <mxGeometry relative="1" as="geometry"/>
                </mxCell>
                <mxCell id="28" value="Teoría de&lt;br&gt;análisis" style="rhombus;whiteSpace=wrap;html=1;rounded=1;comic=0;" parent="143" vertex="1">
                    <mxGeometry x="945" y="155" width="116" height="100" as="geometry"/>
                </mxCell>
                <mxCell id="57" style="edgeStyle=orthogonalEdgeStyle;html=1;exitX=1;exitY=0.5;exitDx=0;exitDy=0;entryX=0.043;entryY=0.51;entryDx=0;entryDy=0;entryPerimeter=0;" parent="143" source="5" target="28" edge="1">
                    <mxGeometry relative="1" as="geometry">
                        <Array as="points">
                            <mxPoint x="924" y="166"/>
                            <mxPoint x="924" y="206"/>
                        </Array>
                    </mxGeometry>
                </mxCell>
                <mxCell id="58" style="edgeStyle=orthogonalEdgeStyle;html=1;exitX=1;exitY=0.5;exitDx=0;exitDy=0;entryX=0.039;entryY=0.51;entryDx=0;entryDy=0;entryPerimeter=0;" parent="143" source="6" target="28" edge="1">
                    <mxGeometry relative="1" as="geometry">
                        <Array as="points">
                            <mxPoint x="924" y="234"/>
                            <mxPoint x="924" y="206"/>
                        </Array>
                    </mxGeometry>
                </mxCell>
                <mxCell id="34" value="Bernoulli" style="rounded=0;whiteSpace=wrap;html=1;comic=0;" parent="143" vertex="1">
                    <mxGeometry x="953" y="101" width="100" height="39" as="geometry"/>
                </mxCell>
                <mxCell id="52" style="edgeStyle=orthogonalEdgeStyle;html=1;exitX=0.5;exitY=0;exitDx=0;exitDy=0;entryX=0.5;entryY=1;entryDx=0;entryDy=0;" parent="143" source="28" target="34" edge="1">
                    <mxGeometry relative="1" as="geometry"/>
                </mxCell>
                <mxCell id="35" value="Timoshenko" style="rounded=0;whiteSpace=wrap;html=1;comic=0;" parent="143" vertex="1">
                    <mxGeometry x="953" y="270" width="100" height="39" as="geometry"/>
                </mxCell>
                <mxCell id="36" style="edgeStyle=orthogonalEdgeStyle;html=1;exitX=0.5;exitY=1;exitDx=0;exitDy=0;entryX=0.5;entryY=0;entryDx=0;entryDy=0;strokeColor=default;" parent="143" source="28" target="35" edge="1">
                    <mxGeometry relative="1" as="geometry"/>
                </mxCell>
                <mxCell id="82" style="edgeStyle=orthogonalEdgeStyle;html=1;exitX=1;exitY=0.5;exitDx=0;exitDy=0;entryX=1;entryY=0.5;entryDx=0;entryDy=0;jumpStyle=arc;jumpSize=20;" parent="143" source="54" target="9" edge="1">
                    <mxGeometry relative="1" as="geometry">
                        <Array as="points">
                            <mxPoint x="1334" y="131"/>
                            <mxPoint x="1334" y="438"/>
                        </Array>
                    </mxGeometry>
                </mxCell>
                <mxCell id="54" value="Cálculo de las fuerzas y deformaciones lineales en el eje X" style="rounded=0;whiteSpace=wrap;html=1;" parent="143" vertex="1">
                    <mxGeometry x="1104" y="101" width="210" height="60" as="geometry"/>
                </mxCell>
                <mxCell id="60" style="edgeStyle=orthogonalEdgeStyle;html=1;exitX=1;exitY=0.5;exitDx=0;exitDy=0;entryX=0;entryY=0.5;entryDx=0;entryDy=0;" parent="143" source="28" target="54" edge="1">
                    <mxGeometry relative="1" as="geometry"/>
                </mxCell>
                <mxCell id="55" value="Cálculo de los momentos y deformaciones angulares en el eje X" style="rounded=0;whiteSpace=wrap;html=1;" parent="143" vertex="1">
                    <mxGeometry x="1104" y="175" width="210" height="60" as="geometry"/>
                </mxCell>
                <mxCell id="59" style="edgeStyle=orthogonalEdgeStyle;html=1;exitX=1;exitY=0.5;exitDx=0;exitDy=0;entryX=0;entryY=0.5;entryDx=0;entryDy=0;" parent="143" source="28" target="55" edge="1">
                    <mxGeometry relative="1" as="geometry"/>
                </mxCell>
                <mxCell id="83" style="edgeStyle=orthogonalEdgeStyle;html=1;exitX=1;exitY=0.5;exitDx=0;exitDy=0;entryX=1;entryY=0.5;entryDx=0;entryDy=0;jumpStyle=arc;jumpSize=20;" parent="143" source="56" target="10" edge="1">
                    <mxGeometry relative="1" as="geometry">
                        <Array as="points">
                            <mxPoint x="1334" y="279"/>
                            <mxPoint x="1334" y="506"/>
                        </Array>
                    </mxGeometry>
                </mxCell>
                <mxCell id="56" value="Cálculo de las fuerzas, momentos, deformaciones lineales y angulares en los eje Y y Z" style="rounded=0;whiteSpace=wrap;html=1;" parent="143" vertex="1">
                    <mxGeometry x="1104" y="249" width="210" height="60" as="geometry"/>
                </mxCell>
                <mxCell id="61" style="edgeStyle=orthogonalEdgeStyle;html=1;exitX=1;exitY=0.5;exitDx=0;exitDy=0;entryX=0;entryY=0.5;entryDx=0;entryDy=0;" parent="143" source="28" target="56" edge="1">
                    <mxGeometry relative="1" as="geometry"/>
                </mxCell>
                <mxCell id="68" value="Criterio de&lt;br&gt;análisis" style="rhombus;whiteSpace=wrap;html=1;rounded=1;comic=0;" parent="143" vertex="1">
                    <mxGeometry x="1355" y="155" width="116" height="100" as="geometry"/>
                </mxCell>
                <mxCell id="71" style="edgeStyle=orthogonalEdgeStyle;html=1;exitX=1;exitY=0.5;exitDx=0;exitDy=0;entryX=0;entryY=0.5;entryDx=0;entryDy=0;" parent="143" source="54" target="68" edge="1">
                    <mxGeometry relative="1" as="geometry"/>
                </mxCell>
                <mxCell id="73" style="edgeStyle=orthogonalEdgeStyle;html=1;exitX=1;exitY=0.5;exitDx=0;exitDy=0;entryX=0;entryY=0.5;entryDx=0;entryDy=0;" parent="143" source="55" target="68" edge="1">
                    <mxGeometry relative="1" as="geometry"/>
                </mxCell>
                <mxCell id="72" style="edgeStyle=orthogonalEdgeStyle;html=1;exitX=1;exitY=0.5;exitDx=0;exitDy=0;entryX=0;entryY=0.5;entryDx=0;entryDy=0;" parent="143" source="56" target="68" edge="1">
                    <mxGeometry relative="1" as="geometry"/>
                </mxCell>
                <mxCell id="69" value="- Von Misses&lt;br&gt;- Tresca&lt;br&gt;- Rankine" style="rounded=0;whiteSpace=wrap;html=1;comic=0;" parent="143" vertex="1">
                    <mxGeometry x="1363" y="65" width="100" height="75" as="geometry"/>
                </mxCell>
                <mxCell id="67" style="edgeStyle=orthogonalEdgeStyle;html=1;exitX=0.5;exitY=0;exitDx=0;exitDy=0;entryX=0.5;entryY=1;entryDx=0;entryDy=0;" parent="143" source="68" target="69" edge="1">
                    <mxGeometry relative="1" as="geometry"/>
                </mxCell>
                <mxCell id="70" value="- ASME&lt;br&gt;- Soderberg&lt;br&gt;- Goodman" style="rounded=0;whiteSpace=wrap;html=1;comic=0;" parent="143" vertex="1">
                    <mxGeometry x="1363" y="270" width="100" height="75" as="geometry"/>
                </mxCell>
                <mxCell id="66" style="edgeStyle=orthogonalEdgeStyle;html=1;exitX=0.5;exitY=1;exitDx=0;exitDy=0;entryX=0.5;entryY=0;entryDx=0;entryDy=0;strokeColor=default;" parent="143" source="68" target="70" edge="1">
                    <mxGeometry relative="1" as="geometry"/>
                </mxCell>
                <mxCell id="74" value="Esfuerzos estáticos y dinámicos" style="rounded=0;whiteSpace=wrap;html=1;" parent="143" vertex="1">
                    <mxGeometry x="1515" y="65" width="210" height="60" as="geometry"/>
                </mxCell>
                <mxCell id="78" style="edgeStyle=orthogonalEdgeStyle;html=1;exitX=1;exitY=0.5;exitDx=0;exitDy=0;entryX=0;entryY=0.5;entryDx=0;entryDy=0;" parent="143" source="68" target="74" edge="1">
                    <mxGeometry relative="1" as="geometry"/>
                </mxCell>
                <mxCell id="75" value="Límites inferior y superior de la velocidad crítica" style="rounded=0;whiteSpace=wrap;html=1;" parent="143" vertex="1">
                    <mxGeometry x="1515" y="285" width="210" height="60" as="geometry"/>
                </mxCell>
                <mxCell id="76" value="Factores de seguridad estáticos y dinámicos" style="rounded=0;whiteSpace=wrap;html=1;" parent="143" vertex="1">
                    <mxGeometry x="1515" y="138" width="210" height="60" as="geometry"/>
                </mxCell>
                <mxCell id="79" style="edgeStyle=orthogonalEdgeStyle;html=1;exitX=1;exitY=0.5;exitDx=0;exitDy=0;entryX=0;entryY=0.5;entryDx=0;entryDy=0;" parent="143" source="68" target="76" edge="1">
                    <mxGeometry relative="1" as="geometry"/>
                </mxCell>
                <mxCell id="98" style="edgeStyle=orthogonalEdgeStyle;html=1;exitX=0;exitY=0.5;exitDx=0;exitDy=0;entryX=0;entryY=0.5;entryDx=0;entryDy=0;" parent="143" source="77" target="75" edge="1">
                    <mxGeometry relative="1" as="geometry">
                        <Array as="points">
                            <mxPoint x="1494" y="242"/>
                            <mxPoint x="1494" y="315"/>
                        </Array>
                    </mxGeometry>
                </mxCell>
                <mxCell id="77" value="Deformaciones lineales y angulares resultantes" style="rounded=0;whiteSpace=wrap;html=1;" parent="143" vertex="1">
                    <mxGeometry x="1515" y="212" width="210" height="60" as="geometry"/>
                </mxCell>
                <mxCell id="80" style="edgeStyle=orthogonalEdgeStyle;html=1;exitX=1;exitY=0.5;exitDx=0;exitDy=0;entryX=0;entryY=0.5;entryDx=0;entryDy=0;" parent="143" source="68" target="77" edge="1">
                    <mxGeometry relative="1" as="geometry"/>
                </mxCell>
                <mxCell id="102" style="edgeStyle=orthogonalEdgeStyle;jumpStyle=arc;jumpSize=20;html=1;exitX=0;exitY=0.5;exitDx=0;exitDy=0;" parent="143" source="84" edge="1">
                    <mxGeometry relative="1" as="geometry">
                        <mxPoint x="1334" y="435" as="targetPoint"/>
                        <Array as="points">
                            <mxPoint x="1414" y="461"/>
                            <mxPoint x="1414" y="425"/>
                        </Array>
                    </mxGeometry>
                </mxCell>
                <mxCell id="84" value="Factores de seguridad estáticos y dinámicos mínimos" style="rounded=0;whiteSpace=wrap;html=1;" parent="143" vertex="1">
                    <mxGeometry x="1515" y="431" width="210" height="60" as="geometry"/>
                </mxCell>
                <mxCell id="89" style="edgeStyle=orthogonalEdgeStyle;html=1;exitX=1;exitY=0.5;exitDx=0;exitDy=0;entryX=0;entryY=0.5;entryDx=0;entryDy=0;" parent="143" source="8" target="84" edge="1">
                    <mxGeometry relative="1" as="geometry">
                        <Array as="points">
                            <mxPoint x="1084" y="370"/>
                            <mxPoint x="1084" y="461"/>
                        </Array>
                    </mxGeometry>
                </mxCell>
                <mxCell id="85" value="Número de ciclos de vida" style="rounded=0;whiteSpace=wrap;html=1;" parent="143" vertex="1">
                    <mxGeometry x="1515" y="505" width="210" height="60" as="geometry"/>
                </mxCell>
                <mxCell id="90" style="edgeStyle=orthogonalEdgeStyle;html=1;exitX=1;exitY=0.5;exitDx=0;exitDy=0;entryX=0;entryY=0.5;entryDx=0;entryDy=0;" parent="143" source="8" target="85" edge="1">
                    <mxGeometry relative="1" as="geometry">
                        <Array as="points">
                            <mxPoint x="1084" y="370"/>
                            <mxPoint x="1084" y="535"/>
                        </Array>
                    </mxGeometry>
                </mxCell>
                <mxCell id="99" style="edgeStyle=orthogonalEdgeStyle;html=1;exitX=1;exitY=0.5;exitDx=0;exitDy=0;entryX=1;entryY=0.5;entryDx=0;entryDy=0;" parent="143" source="86" target="84" edge="1">
                    <mxGeometry relative="1" as="geometry">
                        <Array as="points">
                            <mxPoint x="1748" y="388"/>
                            <mxPoint x="1748" y="461"/>
                        </Array>
                    </mxGeometry>
                </mxCell>
                <mxCell id="101" style="edgeStyle=orthogonalEdgeStyle;jumpStyle=arc;jumpSize=20;html=1;exitX=0;exitY=0.5;exitDx=0;exitDy=0;" parent="143" source="86" edge="1">
                    <mxGeometry relative="1" as="geometry">
                        <mxPoint x="1334" y="435" as="targetPoint"/>
                        <Array as="points">
                            <mxPoint x="1414" y="388"/>
                            <mxPoint x="1414" y="425"/>
                            <mxPoint x="1334" y="425"/>
                        </Array>
                    </mxGeometry>
                </mxCell>
                <mxCell id="86" value="Esfuerzos estáticos y dinámicos máximos" style="rounded=0;whiteSpace=wrap;html=1;" parent="143" vertex="1">
                    <mxGeometry x="1515" y="358" width="210" height="60" as="geometry"/>
                </mxCell>
                <mxCell id="91" style="edgeStyle=orthogonalEdgeStyle;html=1;exitX=1;exitY=0.5;exitDx=0;exitDy=0;entryX=0;entryY=0.5;entryDx=0;entryDy=0;" parent="143" source="7" target="86" edge="1">
                    <mxGeometry relative="1" as="geometry">
                        <Array as="points">
                            <mxPoint x="924" y="302"/>
                            <mxPoint x="924" y="335"/>
                            <mxPoint x="1104" y="335"/>
                            <mxPoint x="1104" y="388"/>
                        </Array>
                    </mxGeometry>
                </mxCell>
                <mxCell id="93" style="edgeStyle=orthogonalEdgeStyle;html=1;exitX=1;exitY=0.5;exitDx=0;exitDy=0;entryX=1;entryY=0.5;entryDx=0;entryDy=0;" parent="143" source="74" target="86" edge="1">
                    <mxGeometry relative="1" as="geometry">
                        <Array as="points">
                            <mxPoint x="1748" y="95"/>
                            <mxPoint x="1748" y="388"/>
                        </Array>
                    </mxGeometry>
                </mxCell>
                <mxCell id="103" value="Criterio de rigidez" style="swimlane;whiteSpace=wrap;html=1;container=0;" parent="143" vertex="1">
                    <mxGeometry x="1784" y="65" width="222" height="60" as="geometry"/>
                </mxCell>
                <mxCell id="106" value="Deformación linear y &lt;br&gt;angular máxima" style="text;html=1;align=center;verticalAlign=middle;resizable=0;points=[];autosize=1;strokeColor=none;fillColor=none;" parent="103" vertex="1">
                    <mxGeometry x="40" y="22" width="130" height="40" as="geometry"/>
                </mxCell>
                <mxCell id="129" style="edgeStyle=orthogonalEdgeStyle;jumpStyle=arc;jumpSize=20;html=1;exitX=1;exitY=0.5;exitDx=0;exitDy=0;entryX=0;entryY=0.5;entryDx=0;entryDy=0;" parent="143" source="77" target="103" edge="1">
                    <mxGeometry relative="1" as="geometry"/>
                </mxCell>
                <mxCell id="118" value="Criterio estático" style="swimlane;whiteSpace=wrap;html=1;container=0;" parent="143" vertex="1">
                    <mxGeometry x="1784" y="175" width="222" height="65" as="geometry"/>
                </mxCell>
                <mxCell id="130" style="edgeStyle=orthogonalEdgeStyle;jumpStyle=arc;jumpSize=20;html=1;exitX=1;exitY=0.5;exitDx=0;exitDy=0;entryX=0;entryY=0.5;entryDx=0;entryDy=0;" parent="143" source="84" target="118" edge="1">
                    <mxGeometry relative="1" as="geometry"/>
                </mxCell>
                <mxCell id="122" value="Criterio dinámico" style="swimlane;whiteSpace=wrap;html=1;container=0;" parent="143" vertex="1">
                    <mxGeometry x="1784" y="285" width="222" height="60" as="geometry"/>
                </mxCell>
                <mxCell id="131" style="edgeStyle=orthogonalEdgeStyle;jumpStyle=arc;jumpSize=20;html=1;exitX=1;exitY=0.5;exitDx=0;exitDy=0;entryX=0;entryY=0.5;entryDx=0;entryDy=0;" parent="143" source="84" target="122" edge="1">
                    <mxGeometry relative="1" as="geometry"/>
                </mxCell>
                <mxCell id="124" value="Criterio vibracional" style="swimlane;whiteSpace=wrap;html=1;container=0;" parent="143" vertex="1">
                    <mxGeometry x="1784" y="395" width="222" height="60" as="geometry"/>
                </mxCell>
                <mxCell id="132" style="edgeStyle=orthogonalEdgeStyle;jumpStyle=arc;jumpSize=20;html=1;exitX=1;exitY=0.5;exitDx=0;exitDy=0;entryX=0;entryY=0.5;entryDx=0;entryDy=0;" parent="143" source="75" target="124" edge="1">
                    <mxGeometry relative="1" as="geometry">
                        <Array as="points">
                            <mxPoint x="1754" y="315"/>
                            <mxPoint x="1754" y="425"/>
                        </Array>
                    </mxGeometry>
                </mxCell>
                <mxCell id="126" value="Criterio de vida" style="swimlane;whiteSpace=wrap;html=1;container=0;" parent="143" vertex="1">
                    <mxGeometry x="1784" y="505" width="222" height="60" as="geometry"/>
                </mxCell>
                <mxCell id="133" style="edgeStyle=orthogonalEdgeStyle;jumpStyle=arc;jumpSize=20;html=1;exitX=1;exitY=0.5;exitDx=0;exitDy=0;entryX=0;entryY=0.5;entryDx=0;entryDy=0;" parent="143" source="85" target="126" edge="1">
                    <mxGeometry relative="1" as="geometry"/>
                </mxCell>
                <mxCell id="119" value="Factor de seguridad estático mínimo" style="text;html=1;align=center;verticalAlign=middle;resizable=0;points=[];autosize=1;strokeColor=none;fillColor=none;" parent="143" vertex="1">
                    <mxGeometry x="1782" y="204" width="220" height="30" as="geometry"/>
                </mxCell>
                <mxCell id="123" value="Factor de seguridad dinámico mínimo" style="text;html=1;align=center;verticalAlign=middle;resizable=0;points=[];autosize=1;strokeColor=none;fillColor=none;" parent="143" vertex="1">
                    <mxGeometry x="1779" y="311" width="220" height="30" as="geometry"/>
                </mxCell>
                <mxCell id="125" value="Velocidad crítica promedio" style="text;html=1;align=center;verticalAlign=middle;resizable=0;points=[];autosize=1;strokeColor=none;fillColor=none;" parent="143" vertex="1">
                    <mxGeometry x="1809" y="422" width="160" height="30" as="geometry"/>
                </mxCell>
                <mxCell id="127" value="Número de horas de vida" style="text;html=1;align=center;verticalAlign=middle;resizable=0;points=[];autosize=1;strokeColor=none;fillColor=none;" parent="143" vertex="1">
                    <mxGeometry x="1809" y="532" width="160" height="30" as="geometry"/>
                </mxCell>
                <mxCell id="141" style="edgeStyle=orthogonalEdgeStyle;jumpStyle=arc;jumpSize=20;html=1;exitX=0;exitY=0;exitDx=0;exitDy=30;exitPerimeter=0;entryX=0.5;entryY=1;entryDx=0;entryDy=0;" parent="143" source="134" target="3" edge="1">
                    <mxGeometry relative="1" as="geometry"/>
                </mxCell>
                <mxCell id="134" value="Apartir de los resultados obtenidos en los 5 criterios de diseño establecidos y las representaciones gráficas respectivas, el usuario esta en la facultad de mejorar reiterativamente su diseño inicial hasta optimizarlo segun sus requerimientos, restricciones y condiciones de trabajo" style="shape=cube;whiteSpace=wrap;html=1;boundedLbl=1;backgroundOutline=1;darkOpacity=0.05;darkOpacity2=0.1;" parent="143" vertex="1">
                    <mxGeometry x="564" y="655" width="1041" height="80" as="geometry"/>
                </mxCell>
                <mxCell id="140" style="edgeStyle=orthogonalEdgeStyle;jumpStyle=arc;jumpSize=20;html=1;exitX=0;exitY=0.5;exitDx=0;exitDy=0;entryX=1.003;entryY=0.506;entryDx=0;entryDy=0;entryPerimeter=0;" parent="143" source="135" target="134" edge="1">
                    <mxGeometry relative="1" as="geometry"/>
                </mxCell>
                <mxCell id="135" value="Representaciónes gráficas bidimensionales&lt;br&gt;o tridimensionales de los resultados" style="html=1;whiteSpace=wrap;container=1;recursiveResize=0;collapsible=0;" parent="143" vertex="1">
                    <mxGeometry x="1684" y="655" width="322" height="80" as="geometry"/>
                </mxCell>
                <mxCell id="136" value="" style="triangle;html=1;whiteSpace=wrap;rotation=-180;" parent="135" vertex="1">
                    <mxGeometry x="280" y="25" width="20" height="30" as="geometry"/>
                </mxCell>
                <mxCell id="139" style="edgeStyle=orthogonalEdgeStyle;jumpStyle=arc;jumpSize=20;html=1;exitX=0.1;exitY=0.5;exitDx=0;exitDy=0;exitPerimeter=0;" parent="143" source="138" edge="1">
                    <mxGeometry relative="1" as="geometry">
                        <mxPoint x="1834" y="655" as="targetPoint"/>
                        <Array as="points">
                            <mxPoint x="1286" y="625"/>
                            <mxPoint x="1834" y="625"/>
                        </Array>
                    </mxGeometry>
                </mxCell>
                <mxCell id="138" value="" style="shape=curlyBracket;whiteSpace=wrap;html=1;rounded=1;flipH=1;labelPosition=right;verticalLabelPosition=middle;align=left;verticalAlign=middle;rotation=90;size=0.5;" parent="143" vertex="1">
                    <mxGeometry x="1262.87" y="-117.87" width="46" height="1442.75" as="geometry"/>
                </mxCell>
                <mxCell id="228" style="edgeStyle=orthogonalEdgeStyle;html=1;entryX=0;entryY=0.5;entryDx=0;entryDy=0;" parent="142" source="172" target="6" edge="1">
                    <mxGeometry relative="1" as="geometry">
                        <mxPoint x="450" y="2930" as="targetPoint"/>
                        <Array as="points">
                            <mxPoint x="2060" y="428"/>
                            <mxPoint x="2060" y="2730"/>
                            <mxPoint x="430" y="2730"/>
                            <mxPoint x="430" y="2934"/>
                        </Array>
                    </mxGeometry>
                </mxCell>
                <mxCell id="229" style="edgeStyle=orthogonalEdgeStyle;html=1;exitX=1;exitY=0.5;exitDx=0;exitDy=0;entryX=0;entryY=0.5;entryDx=0;entryDy=0;" parent="142" source="173" target="6" edge="1">
                    <mxGeometry relative="1" as="geometry">
                        <mxPoint x="490" y="2800" as="targetPoint"/>
                        <Array as="points">
                            <mxPoint x="2060" y="508"/>
                            <mxPoint x="2060" y="2730"/>
                            <mxPoint x="430" y="2730"/>
                            <mxPoint x="430" y="2934"/>
                        </Array>
                    </mxGeometry>
                </mxCell>
                <mxCell id="230" style="edgeStyle=orthogonalEdgeStyle;html=1;exitX=1;exitY=0.5;exitDx=0;exitDy=0;entryX=0;entryY=0.5;entryDx=0;entryDy=0;" parent="142" source="174" target="6" edge="1">
                    <mxGeometry relative="1" as="geometry">
                        <mxPoint x="520" y="2860" as="targetPoint"/>
                        <Array as="points">
                            <mxPoint x="2060" y="588"/>
                            <mxPoint x="2060" y="2730"/>
                            <mxPoint x="430" y="2730"/>
                            <mxPoint x="430" y="2934"/>
                        </Array>
                    </mxGeometry>
                </mxCell>
                <mxCell id="277" style="edgeStyle=orthogonalEdgeStyle;html=1;entryX=0;entryY=0.5;entryDx=0;entryDy=0;" parent="142" source="256" target="6" edge="1">
                    <mxGeometry relative="1" as="geometry">
                        <Array as="points">
                            <mxPoint x="2060" y="1084"/>
                            <mxPoint x="2060" y="2730"/>
                            <mxPoint x="430" y="2730"/>
                            <mxPoint x="430" y="2934"/>
                        </Array>
                    </mxGeometry>
                </mxCell>
                <mxCell id="278" style="edgeStyle=orthogonalEdgeStyle;html=1;entryX=0;entryY=0.5;entryDx=0;entryDy=0;" parent="142" source="258" target="6" edge="1">
                    <mxGeometry relative="1" as="geometry">
                        <Array as="points">
                            <mxPoint x="2060" y="1164"/>
                            <mxPoint x="2060" y="2730"/>
                            <mxPoint x="430" y="2730"/>
                            <mxPoint x="430" y="2934"/>
                        </Array>
                    </mxGeometry>
                </mxCell>
                <mxCell id="279" style="edgeStyle=orthogonalEdgeStyle;html=1;exitX=1;exitY=0.5;exitDx=0;exitDy=0;entryX=0;entryY=0.5;entryDx=0;entryDy=0;" parent="142" source="260" target="6" edge="1">
                    <mxGeometry relative="1" as="geometry">
                        <Array as="points">
                            <mxPoint x="2060" y="1244"/>
                            <mxPoint x="2060" y="2730"/>
                            <mxPoint x="430" y="2730"/>
                            <mxPoint x="430" y="2934"/>
                        </Array>
                    </mxGeometry>
                </mxCell>
                <mxCell id="280" style="edgeStyle=orthogonalEdgeStyle;html=1;entryX=0;entryY=0.5;entryDx=0;entryDy=0;" parent="142" source="274" target="6" edge="1">
                    <mxGeometry relative="1" as="geometry">
                        <Array as="points">
                            <mxPoint x="2060" y="1324"/>
                            <mxPoint x="2060" y="2730"/>
                            <mxPoint x="430" y="2730"/>
                            <mxPoint x="430" y="2934"/>
                        </Array>
                    </mxGeometry>
                </mxCell>
                <mxCell id="335" style="edgeStyle=orthogonalEdgeStyle;html=1;exitX=1;exitY=0.5;exitDx=0;exitDy=0;entryX=0;entryY=0.5;entryDx=0;entryDy=0;" parent="142" source="309" target="6" edge="1">
                    <mxGeometry relative="1" as="geometry">
                        <mxPoint x="1330" y="2640" as="targetPoint"/>
                        <Array as="points">
                            <mxPoint x="2060" y="2013"/>
                            <mxPoint x="2060" y="2730"/>
                            <mxPoint x="430" y="2730"/>
                            <mxPoint x="430" y="2934"/>
                        </Array>
                    </mxGeometry>
                </mxCell>
                <mxCell id="336" style="edgeStyle=orthogonalEdgeStyle;html=1;exitX=1;exitY=0.5;exitDx=0;exitDy=0;entryX=0;entryY=0.5;entryDx=0;entryDy=0;" parent="142" source="307" target="6" edge="1">
                    <mxGeometry relative="1" as="geometry">
                        <mxPoint x="1190" y="2630" as="targetPoint"/>
                        <Array as="points">
                            <mxPoint x="2060" y="1933"/>
                            <mxPoint x="2060" y="2730"/>
                            <mxPoint x="430" y="2730"/>
                            <mxPoint x="430" y="2934"/>
                        </Array>
                    </mxGeometry>
                </mxCell>
                <mxCell id="337" style="edgeStyle=orthogonalEdgeStyle;html=1;exitX=1;exitY=0.5;exitDx=0;exitDy=0;entryX=0;entryY=0.5;entryDx=0;entryDy=0;" parent="142" source="305" target="6" edge="1">
                    <mxGeometry relative="1" as="geometry">
                        <mxPoint x="860" y="2640" as="targetPoint"/>
                        <Array as="points">
                            <mxPoint x="2060" y="1853"/>
                            <mxPoint x="2060" y="2730"/>
                            <mxPoint x="430" y="2730"/>
                            <mxPoint x="430" y="2934"/>
                        </Array>
                    </mxGeometry>
                </mxCell>
                <mxCell id="368" style="edgeStyle=orthogonalEdgeStyle;html=1;exitX=1;exitY=0.5;exitDx=0;exitDy=0;entryX=0;entryY=0.5;entryDx=0;entryDy=0;" parent="142" source="362" target="6" edge="1">
                    <mxGeometry relative="1" as="geometry">
                        <mxPoint x="1000" y="2770" as="targetPoint"/>
                        <Array as="points">
                            <mxPoint x="2060" y="2334"/>
                            <mxPoint x="2060" y="2730"/>
                            <mxPoint x="430" y="2730"/>
                            <mxPoint x="430" y="2934"/>
                        </Array>
                    </mxGeometry>
                </mxCell>
                <mxCell id="369" style="edgeStyle=orthogonalEdgeStyle;html=1;exitX=1;exitY=0.5;exitDx=0;exitDy=0;entryX=0;entryY=0.5;entryDx=0;entryDy=0;" parent="142" source="364" target="6" edge="1">
                    <mxGeometry relative="1" as="geometry">
                        <mxPoint x="1200" y="2640" as="targetPoint"/>
                        <Array as="points">
                            <mxPoint x="2060" y="2414"/>
                            <mxPoint x="2060" y="2730"/>
                            <mxPoint x="430" y="2730"/>
                            <mxPoint x="430" y="2934"/>
                        </Array>
                    </mxGeometry>
                </mxCell>
                <mxCell id="370" style="edgeStyle=orthogonalEdgeStyle;html=1;exitX=1;exitY=0.5;exitDx=0;exitDy=0;entryX=0;entryY=0.5;entryDx=0;entryDy=0;" parent="142" source="365" target="6" edge="1">
                    <mxGeometry relative="1" as="geometry">
                        <mxPoint x="1270" y="2630" as="targetPoint"/>
                        <Array as="points">
                            <mxPoint x="2060" y="2494"/>
                            <mxPoint x="2060" y="2730"/>
                            <mxPoint x="430" y="2730"/>
                            <mxPoint x="430" y="2934"/>
                        </Array>
                    </mxGeometry>
                </mxCell>
                <mxCell id="371" style="edgeStyle=orthogonalEdgeStyle;html=1;exitX=1;exitY=0.5;exitDx=0;exitDy=0;entryX=0;entryY=0.5;entryDx=0;entryDy=0;" parent="142" source="366" target="6" edge="1">
                    <mxGeometry relative="1" as="geometry">
                        <mxPoint x="1340" y="2630" as="targetPoint"/>
                        <Array as="points">
                            <mxPoint x="2060" y="2574"/>
                            <mxPoint x="2060" y="2730"/>
                            <mxPoint x="430" y="2730"/>
                            <mxPoint x="430" y="2934"/>
                        </Array>
                    </mxGeometry>
                </mxCell>
                <mxCell id="149" value="MÓDULO DE ANÁLISIS DE ELEMENTOS PLANOS" style="swimlane;startSize=60;horizontal=0;html=1;fontSize=30;" parent="142" vertex="1">
                    <mxGeometry y="3500" width="2098" height="770" as="geometry"/>
                </mxCell>
                <mxCell id="387" style="edgeStyle=none;html=1;exitX=0.5;exitY=1;exitDx=0;exitDy=0;entryX=0.5;entryY=0;entryDx=0;entryDy=0;" parent="149" source="384" target="385" edge="1">
                    <mxGeometry relative="1" as="geometry"/>
                </mxCell>
                <mxCell id="384" value="Parametros iniciales" style="rounded=1;whiteSpace=wrap;html=1;comic=0;" parent="149" vertex="1">
                    <mxGeometry x="144.5" y="87" width="140" height="75" as="geometry"/>
                </mxCell>
                <mxCell id="388" style="edgeStyle=none;html=1;exitX=1;exitY=0.5;exitDx=0;exitDy=0;entryX=0;entryY=0.5;entryDx=0;entryDy=0;" parent="149" source="385" target="386" edge="1">
                    <mxGeometry relative="1" as="geometry"/>
                </mxCell>
                <mxCell id="389" value="Escala" style="edgeLabel;html=1;align=center;verticalAlign=middle;resizable=0;points=[];" parent="388" vertex="1" connectable="0">
                    <mxGeometry x="-0.2654" y="2" relative="1" as="geometry">
                        <mxPoint x="21" y="2" as="offset"/>
                    </mxGeometry>
                </mxCell>
                <mxCell id="385" value="&lt;div style=&quot;&quot;&gt;&lt;span style=&quot;background-color: initial;&quot;&gt;Imagen de la superficie bidimensional a analizar&lt;/span&gt;&lt;/div&gt;" style="shape=parallelogram;perimeter=parallelogramPerimeter;whiteSpace=wrap;html=1;fixedSize=1;align=center;" parent="149" vertex="1">
                    <mxGeometry x="87.5" y="343.75" width="254" height="82.5" as="geometry"/>
                </mxCell>
                <mxCell id="393" style="edgeStyle=orthogonalEdgeStyle;html=1;exitX=0.5;exitY=1;exitDx=0;exitDy=0;entryX=0.5;entryY=0;entryDx=0;entryDy=0;" parent="149" source="386" target="392" edge="1">
                    <mxGeometry relative="1" as="geometry"/>
                </mxCell>
                <mxCell id="394" style="edgeStyle=orthogonalEdgeStyle;html=1;exitX=0.5;exitY=0;exitDx=0;exitDy=0;entryX=0.5;entryY=1;entryDx=0;entryDy=0;" parent="149" source="386" target="391" edge="1">
                    <mxGeometry relative="1" as="geometry"/>
                </mxCell>
                <mxCell id="396" style="edgeStyle=orthogonalEdgeStyle;html=1;exitX=1;exitY=0.5;exitDx=0;exitDy=0;entryX=0;entryY=0.5;entryDx=0;entryDy=0;" parent="149" source="386" target="395" edge="1">
                    <mxGeometry relative="1" as="geometry"/>
                </mxCell>
                <mxCell id="386" value="Tipo de superficie" style="rhombus;whiteSpace=wrap;html=1;" parent="149" vertex="1">
                    <mxGeometry x="460" y="310" width="200" height="150" as="geometry"/>
                </mxCell>
                <mxCell id="391" value="Abierta" style="rounded=0;whiteSpace=wrap;html=1;" parent="149" vertex="1">
                    <mxGeometry x="501.25" y="220" width="117.5" height="60" as="geometry"/>
                </mxCell>
                <mxCell id="392" value="Cerrada" style="rounded=0;whiteSpace=wrap;html=1;" parent="149" vertex="1">
                    <mxGeometry x="501.25" y="490" width="118.75" height="60" as="geometry"/>
                </mxCell>
                <mxCell id="401" style="edgeStyle=orthogonalEdgeStyle;html=1;exitX=1;exitY=0.5;exitDx=0;exitDy=0;entryX=0;entryY=0.5;entryDx=0;entryDy=0;" parent="149" source="395" target="398" edge="1">
                    <mxGeometry relative="1" as="geometry"/>
                </mxCell>
                <mxCell id="404" style="edgeStyle=orthogonalEdgeStyle;html=1;entryX=0;entryY=0.5;entryDx=0;entryDy=0;" parent="149" source="395" target="397" edge="1">
                    <mxGeometry relative="1" as="geometry"/>
                </mxCell>
                <mxCell id="405" style="edgeStyle=orthogonalEdgeStyle;html=1;entryX=0;entryY=0.5;entryDx=0;entryDy=0;" parent="149" source="395" target="399" edge="1">
                    <mxGeometry relative="1" as="geometry"/>
                </mxCell>
                <mxCell id="395" value="&lt;div style=&quot;&quot;&gt;&lt;span style=&quot;background-color: initial;&quot;&gt;- Número de líneas&amp;nbsp; &amp;nbsp;&lt;/span&gt;&lt;/div&gt;&lt;div style=&quot;&quot;&gt;&lt;span style=&quot;background-color: initial;&quot;&gt;- Número de puntos&amp;nbsp; &amp;nbsp;&amp;nbsp;&lt;/span&gt;&lt;/div&gt;&lt;div style=&quot;&quot;&gt;&lt;span style=&quot;background-color: initial;&quot;&gt;- Refinamiento de malla&lt;/span&gt;&lt;/div&gt;" style="shape=parallelogram;perimeter=parallelogramPerimeter;whiteSpace=wrap;html=1;fixedSize=1;align=center;" parent="149" vertex="1">
                    <mxGeometry x="728" y="343.75" width="190" height="82.5" as="geometry"/>
                </mxCell>
                <mxCell id="402" style="edgeStyle=orthogonalEdgeStyle;html=1;entryX=0.5;entryY=0;entryDx=0;entryDy=0;" parent="149" source="397" target="398" edge="1">
                    <mxGeometry relative="1" as="geometry"/>
                </mxCell>
                <mxCell id="397" value="Dibujo de la geometría bidimensional" style="rounded=0;whiteSpace=wrap;html=1;" parent="149" vertex="1">
                    <mxGeometry x="1038" y="220" width="300" height="60" as="geometry"/>
                </mxCell>
                <mxCell id="403" style="edgeStyle=orthogonalEdgeStyle;html=1;entryX=0.5;entryY=0;entryDx=0;entryDy=0;" parent="149" source="398" target="399" edge="1">
                    <mxGeometry relative="1" as="geometry"/>
                </mxCell>
                <mxCell id="398" value="Aproximación de la geometría bidimensional" style="rounded=0;whiteSpace=wrap;html=1;" parent="149" vertex="1">
                    <mxGeometry x="1038" y="355" width="300" height="60" as="geometry"/>
                </mxCell>
                <mxCell id="415" style="edgeStyle=orthogonalEdgeStyle;html=1;entryX=0;entryY=0.5;entryDx=0;entryDy=0;" parent="149" source="399" target="406" edge="1">
                    <mxGeometry relative="1" as="geometry"/>
                </mxCell>
                <mxCell id="416" style="edgeStyle=orthogonalEdgeStyle;html=1;exitX=1;exitY=0.5;exitDx=0;exitDy=0;entryX=0;entryY=0.5;entryDx=0;entryDy=0;" parent="149" source="399" target="407" edge="1">
                    <mxGeometry relative="1" as="geometry"/>
                </mxCell>
                <mxCell id="399" value="Mallado de la geometría bidimensional" style="rounded=0;whiteSpace=wrap;html=1;" parent="149" vertex="1">
                    <mxGeometry x="1038" y="510" width="300" height="60" as="geometry"/>
                </mxCell>
                <mxCell id="406" value="En cada nodo se define" style="swimlane;whiteSpace=wrap;html=1;" parent="149" vertex="1">
                    <mxGeometry x="1450" y="220" width="200" height="80" as="geometry"/>
                </mxCell>
                <mxCell id="408" value="Apoyo&lt;br&gt;Fuerza en X&lt;br&gt;Fuerza en Y" style="text;html=1;align=center;verticalAlign=middle;resizable=0;points=[];autosize=1;strokeColor=none;fillColor=none;" parent="406" vertex="1">
                    <mxGeometry x="55" y="20" width="90" height="60" as="geometry"/>
                </mxCell>
                <mxCell id="418" style="edgeStyle=orthogonalEdgeStyle;html=1;exitX=0.5;exitY=1;exitDx=0;exitDy=0;entryX=0.5;entryY=0;entryDx=0;entryDy=0;" parent="149" source="407" target="412" edge="1">
                    <mxGeometry relative="1" as="geometry"/>
                </mxCell>
                <mxCell id="407" value="En cada elemento se define" style="swimlane;whiteSpace=wrap;html=1;" parent="149" vertex="1">
                    <mxGeometry x="1450" y="394" width="200" height="90" as="geometry"/>
                </mxCell>
                <mxCell id="409" value="Módulo de poisson&lt;br&gt;Módulo de elasticidad&lt;br&gt;Espesor&lt;br&gt;Esfuerzo de fluencia" style="text;html=1;align=center;verticalAlign=middle;resizable=0;points=[];autosize=1;strokeColor=none;fillColor=none;" parent="407" vertex="1">
                    <mxGeometry x="30" y="21.25" width="140" height="70" as="geometry"/>
                </mxCell>
                <mxCell id="422" style="edgeStyle=orthogonalEdgeStyle;html=1;exitX=1;exitY=0.5;exitDx=0;exitDy=0;entryX=0;entryY=0.5;entryDx=0;entryDy=0;" parent="149" source="412" target="419" edge="1">
                    <mxGeometry relative="1" as="geometry">
                        <Array as="points">
                            <mxPoint x="1710" y="535"/>
                            <mxPoint x="1710" y="260"/>
                        </Array>
                    </mxGeometry>
                </mxCell>
                <mxCell id="412" value="Resultados" style="swimlane;whiteSpace=wrap;html=1;" parent="149" vertex="1">
                    <mxGeometry x="1450" y="500" width="200" height="70" as="geometry"/>
                </mxCell>
                <mxCell id="413" value="Esfuerzo de Von Misses&lt;br&gt;Factor de seguridad" style="text;html=1;align=center;verticalAlign=middle;resizable=0;points=[];autosize=1;strokeColor=none;fillColor=none;" parent="412" vertex="1">
                    <mxGeometry x="25" y="26" width="150" height="40" as="geometry"/>
                </mxCell>
                <mxCell id="424" style="edgeStyle=orthogonalEdgeStyle;html=1;exitX=0.5;exitY=1;exitDx=0;exitDy=0;entryX=0.5;entryY=0;entryDx=0;entryDy=0;" parent="149" source="419" target="420" edge="1">
                    <mxGeometry relative="1" as="geometry"/>
                </mxCell>
                <mxCell id="419" value="- Escala&amp;nbsp; &amp;nbsp; &amp;nbsp; &amp;nbsp; &amp;nbsp; &amp;nbsp; &amp;nbsp; &amp;nbsp; &amp;nbsp; &amp;nbsp; &amp;nbsp;&amp;nbsp;&lt;br&gt;- Número de frames&amp;nbsp; &amp;nbsp; &amp;nbsp;&amp;nbsp;&lt;br&gt;- Resultado a representar" style="shape=parallelogram;perimeter=parallelogramPerimeter;whiteSpace=wrap;html=1;fixedSize=1;" parent="149" vertex="1">
                    <mxGeometry x="1770" y="220" width="240" height="80" as="geometry"/>
                </mxCell>
                <mxCell id="420" value="Simulación bidimensional" style="html=1;whiteSpace=wrap;container=1;recursiveResize=0;collapsible=0;" parent="149" vertex="1">
                    <mxGeometry x="1770" y="490" width="240" height="80" as="geometry"/>
                </mxCell>
                <mxCell id="194" style="edgeStyle=orthogonalEdgeStyle;html=1;exitX=1;exitY=0.5;exitDx=0;exitDy=0;" parent="1" source="155" edge="1">
                    <mxGeometry relative="1" as="geometry">
                        <mxPoint x="1210" y="150" as="targetPoint"/>
                        <Array as="points">
                            <mxPoint x="1210" y="229"/>
                            <mxPoint x="1210" y="150"/>
                        </Array>
                    </mxGeometry>
                </mxCell>
                <mxCell id="269" style="edgeStyle=orthogonalEdgeStyle;html=1;" parent="1" source="267" edge="1">
                    <mxGeometry relative="1" as="geometry">
                        <mxPoint x="1210" y="810" as="targetPoint"/>
                    </mxGeometry>
                </mxCell>
                <mxCell id="273" value="si" style="edgeLabel;html=1;align=center;verticalAlign=middle;resizable=0;points=[];" parent="269" vertex="1" connectable="0">
                    <mxGeometry x="0.0728" y="-2" relative="1" as="geometry">
                        <mxPoint x="-2" y="-11" as="offset"/>
                    </mxGeometry>
                </mxCell>
                <mxCell id="270" style="edgeStyle=orthogonalEdgeStyle;html=1;exitX=0;exitY=0.5;exitDx=0;exitDy=0;" parent="1" source="267" edge="1">
                    <mxGeometry relative="1" as="geometry">
                        <mxPoint x="890" y="810" as="targetPoint"/>
                    </mxGeometry>
                </mxCell>
                <mxCell id="271" value="no" style="edgeLabel;html=1;align=center;verticalAlign=middle;resizable=0;points=[];" parent="270" vertex="1" connectable="0">
                    <mxGeometry x="-0.5402" y="-1" relative="1" as="geometry">
                        <mxPoint x="10" as="offset"/>
                    </mxGeometry>
                </mxCell>
                <mxCell id="375" style="edgeStyle=orthogonalEdgeStyle;html=1;exitX=1;exitY=0.5;exitDx=0;exitDy=0;" parent="1" source="342" edge="1">
                    <mxGeometry relative="1" as="geometry">
                        <mxPoint x="1290.0000000000002" y="2135.3333333333335" as="targetPoint"/>
                    </mxGeometry>
                </mxCell>
                <mxCell id="423" style="edgeStyle=orthogonalEdgeStyle;html=1;exitX=1;exitY=0.5;exitDx=0;exitDy=0;" parent="1" source="410" edge="1">
                    <mxGeometry relative="1" as="geometry">
                        <mxPoint x="1820" y="3480" as="targetPoint"/>
                        <Array as="points">
                            <mxPoint x="1750" y="3566"/>
                            <mxPoint x="1750" y="3480"/>
                        </Array>
                    </mxGeometry>
                </mxCell>
                <mxCell id="410" value="Resultados" style="swimlane;whiteSpace=wrap;html=1;" parent="1" vertex="1">
                    <mxGeometry x="1490" y="3536" width="200" height="60" as="geometry"/>
                </mxCell>
                <mxCell id="411" value="Reacciones y desplazamientos&lt;br&gt;en X y Y" style="text;html=1;align=center;verticalAlign=middle;resizable=0;points=[];autosize=1;strokeColor=none;fillColor=none;" parent="410" vertex="1">
                    <mxGeometry x="5" y="21.75" width="190" height="40" as="geometry"/>
                </mxCell>
                <mxCell id="417" style="edgeStyle=orthogonalEdgeStyle;html=1;entryX=0.5;entryY=0;entryDx=0;entryDy=0;" parent="1" source="406" target="410" edge="1">
                    <mxGeometry relative="1" as="geometry"/>
                </mxCell>
            </root>
        </mxGraphModel>
    </diagram>
</mxfile>